{
  "source": "C:\\Users\\Peter\\Desktop\\stuff\\MIUN\\quantitative_research\\video_compression\\videos\\BVI-HD\\BVI-HD_CDVL_videos\\ORIG\\BricksLeaves_1920x1080_60fps.mp4",
  "output": "C:\\Users\\Peter\\Desktop\\stuff\\MIUN\\quantitative_research\\video_compression\\compressed_videos\\BVI-HD\\hevc\\4\\BricksLeaves_1920x1080_60fps_hevc.mp4",
  "codec": "hevc",
  "ok": "Input #0, mov,mp4,m4a,3gp,3g2,mj2, from 'C:\\Users\\Peter\\Desktop\\stuff\\MIUN\\quantitative_research\\video_compression\\videos\\BVI-HD\\BVI-HD_CDVL_videos\\ORIG\\BricksLeaves_1920x1080_60fps.mp4':\n  Metadata:\n    major_brand     : isom\n    minor_version   : 512\n    compatible_brands: isomiso2avc1mp41\n    encoder         : Lavf54.28.101\n  Duration: 00:00:05.00, start: 0.000000, bitrate: 524627 kb/s\n  Stream #0:0[0x1](und): Video: h264 (High 4:4:4 Predictive) (avc1 / 0x31637661), yuv420p(progressive), 1920x1080, 524622 kb/s, 60 fps, 60 tbr, 60 tbn (default)\n    Metadata:\n      handler_name    : VideoHandler\n      vendor_id       : [0][0][0][0]\n[out#0/mp4 @ 000001f0f9f3ab40] Codec AVOption b:a (set bitrate (in bits/s)) has not been used for any stream. The most likely reason is either wrong type (e.g. a video option with no video streams) or that it is a private option of some decoder which was not actually used for any stream.\nStream mapping:\n  Stream #0:0 -> #0:0 (h264 (native) -> hevc (libx265))\nPress [q] to stop, [?] for help\n[libx265 @ 000001f0fabe04c0] Unknown option: \"aq-mode.\nx265 [info]: HEVC encoder version 4.1+190-8f11c33ac\nx265 [info]: build info [Windows][GCC 15.1.0][64 bit] 10bit\nx265 [info]: using cpu capabilities: MMX2 SSE2Fast LZCNT SSSE3 SSE4.2 AVX FMA3 BMI2 AVX2\nx265 [info]: Main 10 profile, Level-4.1 (Main tier)\nx265 [info]: Thread pool created using 12 threads\nx265 [info]: Slices                              : 1\nx265 [info]: frame threads / pool features       : 3 / wpp(17 rows)\nx265 [info]: Coding QT: max CU size, min CU size : 64 / 8\nx265 [info]: Residual QT: max TU size, max depth : 32 / 1 inter / 1 intra\nx265 [info]: ME / range / subpel / merge         : star / 57 / 3 / 3\nx265 [info]: Keyframe min / max / scenecut / bias  : 25 / 250 / 40 / 5.00 \nx265 [info]: Lookahead / bframes / badapt        : 25 / 4 / 2\nx265 [info]: b-pyramid / weightp / weightb       : 1 / 1 / 0\nx265 [info]: References / ref-limit  cu / depth  : 4 / on / on\nx265 [info]: AQ: mode / str / qg-size / cu-tree  : 2 / 1.0 / 32 / 1\nx265 [info]: Rate Control / qCompress            : ABR-4000 kbps / 0.60\nx265 [info]: VBV/HRD buffer / max-rate / init    : 4000 / 4000 / 0.750\nx265 [info]: tools: rect limit-modes rd=4 psy-rd=2.00 rdoq=2 psy-rdoq=1.00\nx265 [info]: tools: rskip mode=1 signhide tmvp strong-intra-smoothing lslices=4\nx265 [info]: tools: deblock sao dhdr10-info\nOutput #0, mp4, to 'C:\\Users\\Peter\\Desktop\\stuff\\MIUN\\quantitative_research\\video_compression\\compressed_videos\\BVI-HD\\hevc\\4\\BricksLeaves_1920x1080_60fps_hevc.mp4':\n  Metadata:\n    major_brand     : isom\n    minor_version   : 512\n    compatible_brands: isomiso2avc1mp41\n    encoder         : Lavf62.3.100\n  Stream #0:0(und): Video: hevc (hev1 / 0x31766568), yuv420p10le(tv, progressive), 1920x1080, q=2-31, 4000 kb/s, 60 fps, 15360 tbn (default)\n    Metadata:\n      encoder         : Lavc62.11.100 libx265\n      handler_name    : VideoHandler\n      vendor_id       : [0][0][0][0]\n    Side data:\n      cpb: bitrate max/min/avg: 4000000/0/4000000 buffer size: 4000000 vbv_delay: N/A\nframe=    0 fps=0.0 q=0.0 size=       0KiB time=N/A bitrate=N/A speed=N/A elapsed=0:00:01.10    \nframe=    0 fps=0.0 q=0.0 size=       0KiB time=N/A bitrate=N/A speed=N/A elapsed=0:00:01.70    \nframe=    0 fps=0.0 q=0.0 size=       0KiB time=N/A bitrate=N/A speed=N/A elapsed=0:00:02.23    \nframe=    0 fps=0.0 q=0.0 size=       0KiB time=N/A bitrate=N/A speed=N/A elapsed=0:00:02.74    \nframe=    0 fps=0.0 q=0.0 size=       0KiB time=N/A bitrate=N/A speed=N/A elapsed=0:00:03.26    \nframe=    0 fps=0.0 q=0.0 size=       0KiB time=N/A bitrate=N/A speed=N/A elapsed=0:00:03.82    \nframe=    0 fps=0.0 q=0.0 size=       0KiB time=N/A bitrate=N/A speed=N/A elapsed=0:00:04.42    \nframe=    0 fps=0.0 q=0.0 size=       0KiB time=N/A bitrate=N/A speed=N/A elapsed=0:00:04.96    \nframe=    0 fps=0.0 q=0.0 size=       0KiB time=N/A bitrate=N/A speed=N/A elapsed=0:00:05.49    \nframe=    0 fps=0.0 q=0.0 size=       0KiB time=N/A bitrate=N/A speed=N/A elapsed=0:00:06.03    \nframe=    0 fps=0.0 q=0.0 size=       0KiB time=N/A bitrate=N/A speed=N/A elapsed=0:00:06.59    \nframe=    0 fps=0.0 q=0.0 size=       0KiB time=N/A bitrate=N/A speed=N/A elapsed=0:00:07.19    \nframe=    0 fps=0.0 q=0.0 size=       0KiB time=N/A bitrate=N/A speed=N/A elapsed=0:00:07.73    \nframe=    0 fps=0.0 q=0.0 size=       0KiB time=N/A bitrate=N/A speed=N/A elapsed=0:00:08.25    \nframe=    0 fps=0.0 q=0.0 size=       0KiB time=N/A bitrate=N/A speed=N/A elapsed=0:00:08.86    \nframe=    0 fps=0.0 q=0.0 size=       0KiB time=N/A bitrate=N/A speed=N/A elapsed=0:00:09.40    \nframe=    0 fps=0.0 q=0.0 size=       0KiB time=N/A bitrate=N/A speed=N/A elapsed=0:00:09.94    \nframe=    0 fps=0.0 q=0.0 size=       0KiB time=N/A bitrate=N/A speed=N/A elapsed=0:00:10.54    \nframe=    0 fps=0.0 q=0.0 size=       0KiB time=N/A bitrate=N/A speed=N/A elapsed=0:00:11.10    \nframe=    0 fps=0.0 q=0.0 size=       0KiB time=N/A bitrate=N/A speed=N/A elapsed=0:00:11.64    \nframe=    0 fps=0.0 q=0.0 size=       0KiB time=N/A bitrate=N/A speed=N/A elapsed=0:00:12.17    \nframe=    0 fps=0.0 q=0.0 size=       0KiB time=N/A bitrate=N/A speed=N/A elapsed=0:00:12.75    \nframe=    0 fps=0.0 q=0.0 size=       0KiB time=N/A bitrate=N/A speed=N/A elapsed=0:00:13.31    \nframe=    0 fps=0.0 q=0.0 size=       0KiB time=N/A bitrate=N/A speed=N/A elapsed=0:00:13.88    \nframe=    0 fps=0.0 q=0.0 size=       0KiB time=N/A bitrate=N/A speed=N/A elapsed=0:00:14.43    \nframe=    0 fps=0.0 q=0.0 size=       0KiB time=N/A bitrate=N/A speed=N/A elapsed=0:00:14.95    \nframe=    0 fps=0.0 q=0.0 size=       0KiB time=N/A bitrate=N/A speed=N/A elapsed=0:00:15.50    \nframe=    0 fps=0.0 q=0.0 size=       0KiB time=N/A bitrate=N/A speed=N/A elapsed=0:00:16.05    \nframe=    0 fps=0.0 q=0.0 size=       0KiB time=N/A bitrate=N/A speed=N/A elapsed=0:00:16.63    \nframe=    0 fps=0.0 q=0.0 size=       0KiB time=N/A bitrate=N/A speed=N/A elapsed=0:00:17.16    \nframe=    0 fps=0.0 q=0.0 size=       0KiB time=N/A bitrate=N/A speed=N/A elapsed=0:00:17.68    \nframe=    1 fps=0.1 q=38.0 size=       0KiB time=-00:00:00.01 bitrate=N/A speed=N/A elapsed=0:00:18.24    \nframe=    1 fps=0.1 q=38.0 size=       0KiB time=-00:00:00.01 bitrate=N/A speed=N/A elapsed=0:00:18.77    \nframe=    1 fps=0.1 q=38.0 size=       0KiB time=-00:00:00.01 bitrate=N/A speed=N/A elapsed=0:00:19.30    \nframe=    1 fps=0.1 q=38.0 size=       0KiB time=-00:00:00.01 bitrate=N/A speed=N/A elapsed=0:00:19.81    \nframe=    1 fps=0.0 q=38.0 size=       0KiB time=-00:00:00.01 bitrate=N/A speed=N/A elapsed=0:00:20.34    \nframe=    1 fps=0.0 q=38.0 size=       0KiB time=-00:00:00.01 bitrate=N/A speed=N/A elapsed=0:00:20.88    \nframe=    1 fps=0.0 q=38.0 size=       0KiB time=-00:00:00.01 bitrate=N/A speed=N/A elapsed=0:00:21.40    \nframe=    1 fps=0.0 q=38.0 size=       0KiB time=-00:00:00.01 bitrate=N/A speed=N/A elapsed=0:00:21.95    \nframe=    3 fps=0.1 q=51.0 size=       0KiB time=00:00:00.01 bitrate=  21.1kbits/s speed=0.000741x elapsed=0:00:22.48    \nframe=    4 fps=0.2 q=50.3 size=       0KiB time=00:00:00.03 bitrate=  10.6kbits/s speed=0.00145x elapsed=0:00:23.03    \nframe=    4 fps=0.2 q=50.3 size=       0KiB time=00:00:00.03 bitrate=  10.6kbits/s speed=0.00142x elapsed=0:00:23.54    \nframe=    5 fps=0.2 q=47.9 size=       0KiB time=00:00:00.05 bitrate=   7.0kbits/s speed=0.00208x elapsed=0:00:24.05    \nframe=    6 fps=0.2 q=47.4 size=       0KiB time=00:00:00.06 bitrate=   5.3kbits/s speed=0.00271x elapsed=0:00:24.61    \nframe=    7 fps=0.3 q=40.3 size=       0KiB time=00:00:00.08 bitrate=   4.2kbits/s speed=0.00331x elapsed=0:00:25.19    \nframe=    7 fps=0.3 q=40.3 size=       0KiB time=00:00:00.08 bitrate=   4.2kbits/s speed=0.00324x elapsed=0:00:25.70    \nframe=    8 fps=0.3 q=43.3 size=       0KiB time=00:00:00.10 bitrate=   3.5kbits/s speed=0.00381x elapsed=0:00:26.22    \nframe=   10 fps=0.4 q=43.8 size=       0KiB time=00:00:00.13 bitrate=   2.6kbits/s speed=0.00498x elapsed=0:00:26.74    \nframe=   10 fps=0.4 q=43.8 size=       0KiB time=00:00:00.13 bitrate=   2.6kbits/s speed=0.00489x elapsed=0:00:27.27    \nframe=   10 fps=0.4 q=43.8 size=       0KiB time=00:00:00.13 bitrate=   2.6kbits/s speed=0.00479x elapsed=0:00:27.84    \nframe=   10 fps=0.4 q=43.8 size=       0KiB time=00:00:00.13 bitrate=   2.6kbits/s speed=0.00468x elapsed=0:00:28.47    \nframe=   11 fps=0.4 q=43.7 size=       0KiB time=00:00:00.15 bitrate=   2.3kbits/s speed=0.00516x elapsed=0:00:29.06    \nframe=   12 fps=0.4 q=36.6 size=       0KiB time=00:00:00.16 bitrate=   2.1kbits/s speed=0.00564x elapsed=0:00:29.57    \nframe=   13 fps=0.4 q=43.3 size=       0KiB time=00:00:00.18 bitrate=   1.9kbits/s speed=0.00609x elapsed=0:00:30.10    \nframe=   14 fps=0.5 q=43.2 size=       0KiB time=00:00:00.20 bitrate=   1.8kbits/s speed=0.00652x elapsed=0:00:30.65    \nframe=   14 fps=0.4 q=43.2 size=       0KiB time=00:00:00.20 bitrate=   1.8kbits/s speed=0.0064x elapsed=0:00:31.25    \nframe=   16 fps=0.5 q=44.3 size=       0KiB time=00:00:00.23 bitrate=   1.5kbits/s speed=0.00734x elapsed=0:00:31.76    \nframe=   17 fps=0.5 q=36.9 size=       0KiB time=00:00:00.25 bitrate=   1.4kbits/s speed=0.00774x elapsed=0:00:32.30    \nframe=   18 fps=0.5 q=43.5 size=       0KiB time=00:00:00.26 bitrate=   1.3kbits/s speed=0.00811x elapsed=0:00:32.87    \nframe=   19 fps=0.6 q=44.3 size=       0KiB time=00:00:00.28 bitrate=   1.2kbits/s speed=0.00848x elapsed=0:00:33.40    \nframe=   19 fps=0.6 q=44.3 size=       0KiB time=00:00:00.28 bitrate=   1.2kbits/s speed=0.00834x elapsed=0:00:33.95    \nframe=   19 fps=0.6 q=44.3 size=       0KiB time=00:00:00.28 bitrate=   1.2kbits/s speed=0.00822x elapsed=0:00:34.48    \nframe=   20 fps=0.6 q=43.8 size=       0KiB time=00:00:00.30 bitrate=   1.2kbits/s speed=0.00857x elapsed=0:00:35.01    \nframe=   20 fps=0.6 q=43.8 size=       0KiB time=00:00:00.30 bitrate=   1.2kbits/s speed=0.00843x elapsed=0:00:35.56    \nframe=   22 fps=0.6 q=36.3 size=       0KiB time=00:00:00.33 bitrate=   1.1kbits/s speed=0.00922x elapsed=0:00:36.13    \nframe=   23 fps=0.6 q=42.6 size=       0KiB time=00:00:00.35 bitrate=   1.0kbits/s speed=0.00954x elapsed=0:00:36.67    \nframe=   23 fps=0.6 q=42.6 size=       0KiB time=00:00:00.35 bitrate=   1.0kbits/s speed=0.0094x elapsed=0:00:37.22    \nframe=   24 fps=0.6 q=43.2 size=       0KiB time=00:00:00.36 bitrate=   1.0kbits/s speed=0.00971x elapsed=0:00:37.76    \nframe=   24 fps=0.6 q=43.2 size=       0KiB time=00:00:00.36 bitrate=   1.0kbits/s speed=0.00957x elapsed=0:00:38.30    \nframe=   24 fps=0.6 q=43.2 size=       0KiB time=00:00:00.36 bitrate=   1.0kbits/s speed=0.00944x elapsed=0:00:38.85    \nframe=   24 fps=0.6 q=43.2 size=       0KiB time=00:00:00.36 bitrate=   1.0kbits/s speed=0.0093x elapsed=0:00:39.42    \nframe=   24 fps=0.6 q=43.2 size=       0KiB time=00:00:00.36 bitrate=   1.0kbits/s speed=0.00917x elapsed=0:00:40.00    \nframe=   25 fps=0.6 q=43.0 size=       0KiB time=00:00:00.38 bitrate=   0.9kbits/s speed=0.00946x elapsed=0:00:40.51    \nframe=   25 fps=0.6 q=43.0 size=       0KiB time=00:00:00.38 bitrate=   0.9kbits/s speed=0.00933x elapsed=0:00:41.06    \nframe=   25 fps=0.6 q=43.0 size=       0KiB time=00:00:00.38 bitrate=   0.9kbits/s speed=0.0092x elapsed=0:00:41.65    \nframe=   25 fps=0.6 q=43.0 size=       0KiB time=00:00:00.38 bitrate=   0.9kbits/s speed=0.00908x elapsed=0:00:42.20    \nframe=   26 fps=0.6 q=42.9 size=       0KiB time=00:00:00.40 bitrate=   0.9kbits/s speed=0.00936x elapsed=0:00:42.73    \nframe=   26 fps=0.6 q=42.9 size=       0KiB time=00:00:00.40 bitrate=   0.9kbits/s speed=0.00924x elapsed=0:00:43.29    \nframe=   26 fps=0.6 q=42.9 size=       0KiB time=00:00:00.40 bitrate=   0.9kbits/s speed=0.00912x elapsed=0:00:43.84    \nframe=   26 fps=0.6 q=42.9 size=       0KiB time=00:00:00.40 bitrate=   0.9kbits/s speed=0.00901x elapsed=0:00:44.37    \nframe=   27 fps=0.6 q=35.5 size=       0KiB time=00:00:00.41 bitrate=   0.8kbits/s speed=0.00928x elapsed=0:00:44.89    \nframe=   27 fps=0.6 q=35.5 size=       0KiB time=00:00:00.41 bitrate=   0.8kbits/s speed=0.00917x elapsed=0:00:45.42    \nframe=   27 fps=0.6 q=35.5 size=       0KiB time=00:00:00.41 bitrate=   0.8kbits/s speed=0.00907x elapsed=0:00:45.93    \nframe=   27 fps=0.6 q=35.5 size=       0KiB time=00:00:00.41 bitrate=   0.8kbits/s speed=0.00897x elapsed=0:00:46.46    \nframe=   28 fps=0.6 q=42.2 size=       0KiB time=00:00:00.43 bitrate=   0.8kbits/s speed=0.00921x elapsed=0:00:47.03    \nframe=   28 fps=0.6 q=42.2 size=       0KiB time=00:00:00.43 bitrate=   0.8kbits/s speed=0.00911x elapsed=0:00:47.59    \nframe=   28 fps=0.6 q=42.2 size=       0KiB time=00:00:00.43 bitrate=   0.8kbits/s speed=0.009x elapsed=0:00:48.14    \nframe=   29 fps=0.6 q=42.9 size=       0KiB time=00:00:00.45 bitrate=   0.8kbits/s speed=0.00924x elapsed=0:00:48.70    \nframe=   29 fps=0.6 q=42.9 size=       0KiB time=00:00:00.45 bitrate=   0.8kbits/s speed=0.00913x elapsed=0:00:49.28    \nframe=   30 fps=0.6 q=42.6 size=       0KiB time=00:00:00.46 bitrate=   0.8kbits/s speed=0.00937x elapsed=0:00:49.81    \nframe=   30 fps=0.6 q=42.6 size=       0KiB time=00:00:00.46 bitrate=   0.8kbits/s speed=0.00927x elapsed=0:00:50.35    \nframe=   30 fps=0.6 q=42.6 size=       0KiB time=00:00:00.46 bitrate=   0.8kbits/s speed=0.00916x elapsed=0:00:50.95    \nframe=   30 fps=0.6 q=42.6 size=       0KiB time=00:00:00.46 bitrate=   0.8kbits/s speed=0.00905x elapsed=0:00:51.57    \nframe=   30 fps=0.6 q=42.6 size=       0KiB time=00:00:00.46 bitrate=   0.8kbits/s speed=0.00896x elapsed=0:00:52.10    \nframe=   30 fps=0.6 q=42.6 size=       0KiB time=00:00:00.46 bitrate=   0.8kbits/s speed=0.00885x elapsed=0:00:52.72    \nframe=   30 fps=0.6 q=42.6 size=       0KiB time=00:00:00.46 bitrate=   0.8kbits/s speed=0.00873x elapsed=0:00:53.42    \nframe=   30 fps=0.6 q=42.6 size=       0KiB time=00:00:00.46 bitrate=   0.8kbits/s speed=0.00863x elapsed=0:00:54.07    \nframe=   30 fps=0.5 q=42.6 size=       0KiB time=00:00:00.46 bitrate=   0.8kbits/s speed=0.00854x elapsed=0:00:54.66    \nframe=   30 fps=0.5 q=42.6 size=       0KiB time=00:00:00.46 bitrate=   0.8kbits/s speed=0.00845x elapsed=0:00:55.24    \nframe=   30 fps=0.5 q=42.6 size=       0KiB time=00:00:00.46 bitrate=   0.8kbits/s speed=0.00836x elapsed=0:00:55.82    \nframe=   30 fps=0.5 q=42.6 size=       0KiB time=00:00:00.46 bitrate=   0.8kbits/s speed=0.00826x elapsed=0:00:56.46    \nframe=   30 fps=0.5 q=42.6 size=       0KiB time=00:00:00.46 bitrate=   0.8kbits/s speed=0.00817x elapsed=0:00:57.11    \nframe=   30 fps=0.5 q=42.6 size=       0KiB time=00:00:00.46 bitrate=   0.8kbits/s speed=0.00808x elapsed=0:00:57.74    \nframe=   31 fps=0.5 q=42.8 size=       0KiB time=00:00:00.48 bitrate=   0.7kbits/s speed=0.00828x elapsed=0:00:58.36    \nframe=   31 fps=0.5 q=42.8 size=       0KiB time=00:00:00.48 bitrate=   0.7kbits/s speed=0.00821x elapsed=0:00:58.89    \nframe=   31 fps=0.5 q=42.8 size=       0KiB time=00:00:00.48 bitrate=   0.7kbits/s speed=0.00814x elapsed=0:00:59.41    \nframe=   31 fps=0.5 q=42.8 size=       0KiB time=00:00:00.48 bitrate=   0.7kbits/s speed=0.00806x elapsed=0:00:59.97    \nframe=   32 fps=0.5 q=35.1 size=       0KiB time=00:00:00.50 bitrate=   0.7kbits/s speed=0.00826x elapsed=0:01:00.55    \nframe=   32 fps=0.5 q=35.1 size=       0KiB time=00:00:00.50 bitrate=   0.7kbits/s speed=0.00819x elapsed=0:01:01.08    \nframe=   33 fps=0.5 q=41.7 size=       0KiB time=00:00:00.51 bitrate=   0.7kbits/s speed=0.00838x elapsed=0:01:01.66    \nframe=   33 fps=0.5 q=41.7 size=       0KiB time=00:00:00.51 bitrate=   0.7kbits/s speed=0.00831x elapsed=0:01:02.17    \nframe=   33 fps=0.5 q=41.7 size=       0KiB time=00:00:00.51 bitrate=   0.7kbits/s speed=0.00824x elapsed=0:01:02.70    \nframe=   34 fps=0.5 q=43.3 size=     256KiB time=00:00:00.53 bitrate=3932.8kbits/s speed=0.00843x elapsed=0:01:03.23    \nframe=   34 fps=0.5 q=43.3 size=     256KiB time=00:00:00.53 bitrate=3932.8kbits/s speed=0.00836x elapsed=0:01:03.76    \nframe=   34 fps=0.5 q=43.3 size=     256KiB time=00:00:00.53 bitrate=3932.8kbits/s speed=0.0083x elapsed=0:01:04.27    \nframe=   35 fps=0.5 q=42.7 size=     256KiB time=00:00:00.55 bitrate=3813.6kbits/s speed=0.00849x elapsed=0:01:04.80    \nframe=   35 fps=0.5 q=42.7 size=     256KiB time=00:00:00.55 bitrate=3813.6kbits/s speed=0.00842x elapsed=0:01:05.33    \nframe=   36 fps=0.5 q=42.6 size=     256KiB time=00:00:00.56 bitrate=3701.5kbits/s speed=0.0086x elapsed=0:01:05.85    \nframe=   37 fps=0.6 q=35.8 size=     256KiB time=00:00:00.58 bitrate=3595.7kbits/s speed=0.00879x elapsed=0:01:06.39    \nframe=   37 fps=0.6 q=35.8 size=     256KiB time=00:00:00.58 bitrate=3595.7kbits/s speed=0.00872x elapsed=0:01:06.91    \nframe=   38 fps=0.6 q=41.6 size=     256KiB time=00:00:00.60 bitrate=3495.8kbits/s speed=0.00889x elapsed=0:01:07.45    \nframe=   38 fps=0.6 q=41.6 size=     256KiB time=00:00:00.60 bitrate=3495.8kbits/s speed=0.00883x elapsed=0:01:07.97    \nframe=   39 fps=0.6 q=42.9 size=     256KiB time=00:00:00.61 bitrate=3401.4kbits/s speed=0.009x elapsed=0:01:08.50    \nframe=   39 fps=0.6 q=42.9 size=     256KiB time=00:00:00.61 bitrate=3401.4kbits/s speed=0.00893x elapsed=0:01:09.02    \nframe=   40 fps=0.6 q=42.0 size=     256KiB time=00:00:00.63 bitrate=3311.9kbits/s speed=0.00911x elapsed=0:01:09.52    \nframe=   41 fps=0.6 q=42.1 size=     256KiB time=00:00:00.65 bitrate=3226.9kbits/s speed=0.00928x elapsed=0:01:10.04    \nframe=   42 fps=0.6 q=35.1 size=     256KiB time=00:00:00.66 bitrate=3146.3kbits/s speed=0.00945x elapsed=0:01:10.57    \nframe=   42 fps=0.6 q=35.1 size=     256KiB time=00:00:00.66 bitrate=3146.3kbits/s speed=0.00937x elapsed=0:01:11.13    \nframe=   43 fps=0.6 q=41.2 size=     256KiB time=00:00:00.68 bitrate=3069.5kbits/s speed=0.00954x elapsed=0:01:11.66    \nframe=   44 fps=0.6 q=42.5 size=     256KiB time=00:00:00.70 bitrate=2996.4kbits/s speed=0.0097x elapsed=0:01:12.18    \nframe=   44 fps=0.6 q=42.5 size=     256KiB time=00:00:00.70 bitrate=2996.4kbits/s speed=0.00963x elapsed=0:01:12.71    \nframe=   45 fps=0.6 q=41.7 size=     256KiB time=00:00:00.71 bitrate=2926.7kbits/s speed=0.00978x elapsed=0:01:13.25    \nframe=   45 fps=0.6 q=41.7 size=     256KiB time=00:00:00.71 bitrate=2926.7kbits/s speed=0.00971x elapsed=0:01:13.78    \nframe=   46 fps=0.6 q=41.9 size=     256KiB time=00:00:00.73 bitrate=2860.2kbits/s speed=0.00987x elapsed=0:01:14.32    \nframe=   46 fps=0.6 q=41.9 size=     256KiB time=00:00:00.73 bitrate=2860.2kbits/s speed=0.00979x elapsed=0:01:14.88    \nframe=   47 fps=0.6 q=35.2 size=     256KiB time=00:00:00.75 bitrate=2796.7kbits/s speed=0.00994x elapsed=0:01:15.41    \nframe=   47 fps=0.6 q=35.2 size=     256KiB time=00:00:00.75 bitrate=2796.7kbits/s speed=0.00988x elapsed=0:01:15.94    \nframe=   48 fps=0.6 q=41.2 size=     256KiB time=00:00:00.76 bitrate=2735.9kbits/s speed=0.01x elapsed=0:01:16.47    \nframe=   48 fps=0.6 q=41.2 size=     256KiB time=00:00:00.76 bitrate=2735.9kbits/s speed=0.00996x elapsed=0:01:17.00    \nframe=   49 fps=0.6 q=42.3 size=     256KiB time=00:00:00.78 bitrate=2677.7kbits/s speed=0.0101x elapsed=0:01:17.53    \nframe=   49 fps=0.6 q=42.3 size=     256KiB time=00:00:00.78 bitrate=2677.7kbits/s speed=0.01x elapsed=0:01:18.04    \nframe=   50 fps=0.6 q=41.5 size=     256KiB time=00:00:00.80 bitrate=2621.9kbits/s speed=0.0102x elapsed=0:01:18.56    \nframe=   50 fps=0.6 q=41.5 size=     256KiB time=00:00:00.80 bitrate=2621.9kbits/s speed=0.0101x elapsed=0:01:19.08    \nframe=   51 fps=0.6 q=41.7 size=     256KiB time=00:00:00.81 bitrate=2568.4kbits/s speed=0.0103x elapsed=0:01:19.60    \nframe=   51 fps=0.6 q=41.7 size=     256KiB time=00:00:00.81 bitrate=2568.4kbits/s speed=0.0102x elapsed=0:01:20.13    \nframe=   52 fps=0.6 q=35.4 size=     256KiB time=00:00:00.83 bitrate=2517.0kbits/s speed=0.0103x elapsed=0:01:20.70    \nframe=   52 fps=0.6 q=35.4 size=     256KiB time=00:00:00.83 bitrate=2517.0kbits/s speed=0.0103x elapsed=0:01:21.23    \nframe=   52 fps=0.6 q=35.4 size=     256KiB time=00:00:00.83 bitrate=2517.0kbits/s speed=0.0102x elapsed=0:01:21.82    \nframe=   52 fps=0.6 q=35.4 size=     256KiB time=00:00:00.83 bitrate=2517.0kbits/s speed=0.0101x elapsed=0:01:22.39    \nframe=   52 fps=0.6 q=35.4 size=     256KiB time=00:00:00.83 bitrate=2517.0kbits/s speed=0.01x elapsed=0:01:22.95    \nframe=   53 fps=0.6 q=40.7 size=     256KiB time=00:00:00.85 bitrate=2467.7kbits/s speed=0.0102x elapsed=0:01:23.52    \nframe=   54 fps=0.6 q=41.8 size=     256KiB time=00:00:00.86 bitrate=2420.2kbits/s speed=0.0103x elapsed=0:01:24.03    \nframe=   54 fps=0.6 q=41.8 size=     256KiB time=00:00:00.86 bitrate=2420.2kbits/s speed=0.0103x elapsed=0:01:24.55    \nframe=   55 fps=0.6 q=41.6 size=     256KiB time=00:00:00.88 bitrate=2374.5kbits/s speed=0.0104x elapsed=0:01:25.09    \nframe=   55 fps=0.6 q=41.6 size=     256KiB time=00:00:00.88 bitrate=2374.5kbits/s speed=0.0103x elapsed=0:01:25.64    \nframe=   55 fps=0.6 q=41.6 size=     256KiB time=00:00:00.88 bitrate=2374.5kbits/s speed=0.0102x elapsed=0:01:26.19    \nframe=   55 fps=0.6 q=41.6 size=     256KiB time=00:00:00.88 bitrate=2374.5kbits/s speed=0.0102x elapsed=0:01:26.71    \nframe=   56 fps=0.6 q=41.6 size=     256KiB time=00:00:00.90 bitrate=2330.6kbits/s speed=0.0103x elapsed=0:01:27.24    \nframe=   56 fps=0.6 q=41.6 size=     256KiB time=00:00:00.90 bitrate=2330.6kbits/s speed=0.0103x elapsed=0:01:27.77    \nframe=   56 fps=0.6 q=41.6 size=     256KiB time=00:00:00.90 bitrate=2330.6kbits/s speed=0.0102x elapsed=0:01:28.29    \nframe=   56 fps=0.6 q=41.6 size=     256KiB time=00:00:00.90 bitrate=2330.6kbits/s speed=0.0101x elapsed=0:01:28.85    \nframe=   56 fps=0.6 q=41.6 size=     256KiB time=00:00:00.90 bitrate=2330.6kbits/s speed=0.0101x elapsed=0:01:29.37    \nframe=   57 fps=0.6 q=35.5 size=     256KiB time=00:00:00.91 bitrate=2288.2kbits/s speed=0.0102x elapsed=0:01:29.91    \nframe=   58 fps=0.6 q=40.6 size=     256KiB time=00:00:00.93 bitrate=2247.3kbits/s speed=0.0103x elapsed=0:01:30.43    \nframe=   58 fps=0.6 q=40.6 size=     256KiB time=00:00:00.93 bitrate=2247.3kbits/s speed=0.0103x elapsed=0:01:30.95    \nframe=   58 fps=0.6 q=40.6 size=     256KiB time=00:00:00.93 bitrate=2247.3kbits/s speed=0.0102x elapsed=0:01:31.47    \nframe=   58 fps=0.6 q=40.6 size=     256KiB time=00:00:00.93 bitrate=2247.3kbits/s speed=0.0101x elapsed=0:01:32.01    \nframe=   58 fps=0.6 q=40.6 size=     256KiB time=00:00:00.93 bitrate=2247.3kbits/s speed=0.0101x elapsed=0:01:32.53    \nframe=   58 fps=0.6 q=40.6 size=     256KiB time=00:00:00.93 bitrate=2247.3kbits/s speed=0.01x elapsed=0:01:33.06    \nframe=   59 fps=0.6 q=41.7 size=     256KiB time=00:00:00.95 bitrate=2207.9kbits/s speed=0.0101x elapsed=0:01:33.60    \nframe=   60 fps=0.6 q=41.3 size=     256KiB time=00:00:00.96 bitrate=2169.8kbits/s speed=0.0103x elapsed=0:01:34.14    \nframe=   60 fps=0.6 q=41.3 size=     256KiB time=00:00:00.96 bitrate=2169.8kbits/s speed=0.0102x elapsed=0:01:34.69    \nframe=   60 fps=0.6 q=41.3 size=     256KiB time=00:00:00.96 bitrate=2169.8kbits/s speed=0.0102x elapsed=0:01:35.21    \nframe=   61 fps=0.6 q=41.4 size=     256KiB time=00:00:00.98 bitrate=2133.1kbits/s speed=0.0103x elapsed=0:01:35.74    \nframe=   61 fps=0.6 q=41.4 size=     256KiB time=00:00:00.98 bitrate=2133.1kbits/s speed=0.0102x elapsed=0:01:36.26    \nframe=   61 fps=0.6 q=41.4 size=     256KiB time=00:00:00.98 bitrate=2133.1kbits/s speed=0.0102x elapsed=0:01:36.79    \nframe=   62 fps=0.6 q=34.9 size=     256KiB time=00:00:01.00 bitrate=2097.5kbits/s speed=0.0103x elapsed=0:01:37.35    \nframe=   62 fps=0.6 q=34.9 size=     256KiB time=00:00:01.00 bitrate=2097.5kbits/s speed=0.0102x elapsed=0:01:37.89    \nframe=   62 fps=0.6 q=34.9 size=     256KiB time=00:00:01.00 bitrate=2097.5kbits/s speed=0.0102x elapsed=0:01:38.42    \nframe=   62 fps=0.6 q=34.9 size=     256KiB time=00:00:01.00 bitrate=2097.5kbits/s speed=0.0101x elapsed=0:01:38.96    \nframe=   62 fps=0.6 q=34.9 size=     256KiB time=00:00:01.00 bitrate=2097.5kbits/s speed=0.01x elapsed=0:01:39.51    \nframe=   64 fps=0.6 q=41.5 size=     256KiB time=00:00:01.03 bitrate=2029.8kbits/s speed=0.0103x elapsed=0:01:40.06    \nframe=   64 fps=0.6 q=41.5 size=     256KiB time=00:00:01.03 bitrate=2029.8kbits/s speed=0.0103x elapsed=0:01:40.61    \nframe=   64 fps=0.6 q=41.5 size=     256KiB time=00:00:01.03 bitrate=2029.8kbits/s speed=0.0102x elapsed=0:01:41.14    \nframe=   64 fps=0.6 q=41.5 size=     256KiB time=00:00:01.03 bitrate=2029.8kbits/s speed=0.0102x elapsed=0:01:41.70    \nframe=   65 fps=0.6 q=41.5 size=     256KiB time=00:00:01.05 bitrate=1997.6kbits/s speed=0.0103x elapsed=0:01:42.22    \nframe=   65 fps=0.6 q=41.5 size=     256KiB time=00:00:01.05 bitrate=1997.6kbits/s speed=0.0102x elapsed=0:01:42.76    \nframe=   66 fps=0.6 q=41.6 size=     256KiB time=00:00:01.06 bitrate=1966.4kbits/s speed=0.0103x elapsed=0:01:43.31    \nframe=   66 fps=0.6 q=41.6 size=     256KiB time=00:00:01.06 bitrate=1966.4kbits/s speed=0.0103x elapsed=0:01:43.90    \nframe=   66 fps=0.6 q=41.6 size=     256KiB time=00:00:01.06 bitrate=1966.4kbits/s speed=0.0102x elapsed=0:01:44.44    \nframe=   66 fps=0.6 q=41.6 size=     256KiB time=00:00:01.06 bitrate=1966.4kbits/s speed=0.0102x elapsed=0:01:44.97    \nframe=   67 fps=0.6 q=35.0 size=     256KiB time=00:00:01.08 bitrate=1936.2kbits/s speed=0.0103x elapsed=0:01:45.49    \nframe=   67 fps=0.6 q=35.0 size=     256KiB time=00:00:01.08 bitrate=1936.2kbits/s speed=0.0102x elapsed=0:01:46.04    \nframe=   67 fps=0.6 q=35.0 size=     256KiB time=00:00:01.08 bitrate=1936.2kbits/s speed=0.0102x elapsed=0:01:46.62    \nframe=   67 fps=0.6 q=35.0 size=     256KiB time=00:00:01.08 bitrate=1936.2kbits/s speed=0.0101x elapsed=0:01:47.16    \nframe=   68 fps=0.6 q=40.6 size=     512KiB time=00:00:01.10 bitrate=3813.3kbits/s speed=0.0102x elapsed=0:01:47.72    \nframe=   69 fps=0.6 q=41.7 size=     512KiB time=00:00:01.11 bitrate=3756.4kbits/s speed=0.0103x elapsed=0:01:48.23    \nframe=   69 fps=0.6 q=41.7 size=     512KiB time=00:00:01.11 bitrate=3756.4kbits/s speed=0.0103x elapsed=0:01:48.78    \nframe=   69 fps=0.6 q=41.7 size=     512KiB time=00:00:01.11 bitrate=3756.4kbits/s speed=0.0102x elapsed=0:01:49.32    \nframe=   69 fps=0.6 q=41.7 size=     512KiB time=00:00:01.11 bitrate=3756.4kbits/s speed=0.0102x elapsed=0:01:49.91    \nframe=   70 fps=0.6 q=41.5 size=     512KiB time=00:00:01.13 bitrate=3701.2kbits/s speed=0.0103x elapsed=0:01:50.46    \nframe=   70 fps=0.6 q=41.5 size=     512KiB time=00:00:01.13 bitrate=3701.2kbits/s speed=0.0102x elapsed=0:01:50.99    \nframe=   70 fps=0.6 q=41.5 size=     512KiB time=00:00:01.13 bitrate=3701.2kbits/s speed=0.0102x elapsed=0:01:51.57    \nframe=   70 fps=0.6 q=41.5 size=     512KiB time=00:00:01.13 bitrate=3701.2kbits/s speed=0.0101x elapsed=0:01:52.11    \nframe=   71 fps=0.6 q=41.6 size=     512KiB time=00:00:01.15 bitrate=3647.5kbits/s speed=0.0102x elapsed=0:01:52.63    \nframe=   71 fps=0.6 q=41.6 size=     512KiB time=00:00:01.15 bitrate=3647.5kbits/s speed=0.0102x elapsed=0:01:53.16    \nframe=   71 fps=0.6 q=41.6 size=     512KiB time=00:00:01.15 bitrate=3647.5kbits/s speed=0.0101x elapsed=0:01:53.73    \nframe=   71 fps=0.6 q=41.6 size=     512KiB time=00:00:01.15 bitrate=3647.5kbits/s speed=0.0101x elapsed=0:01:54.27    \nframe=   72 fps=0.6 q=34.4 size=     512KiB time=00:00:01.16 bitrate=3595.4kbits/s speed=0.0102x elapsed=0:01:54.79    \nframe=   73 fps=0.6 q=40.4 size=     512KiB time=00:00:01.18 bitrate=3544.8kbits/s speed=0.0103x elapsed=0:01:55.33    \nframe=   73 fps=0.6 q=40.4 size=     512KiB time=00:00:01.18 bitrate=3544.8kbits/s speed=0.0102x elapsed=0:01:55.86    \nframe=   73 fps=0.6 q=40.4 size=     512KiB time=00:00:01.18 bitrate=3544.8kbits/s speed=0.0102x elapsed=0:01:56.40    \nframe=   73 fps=0.6 q=40.4 size=     512KiB time=00:00:01.18 bitrate=3544.8kbits/s speed=0.0101x elapsed=0:01:56.93    \nframe=   74 fps=0.6 q=41.5 size=     512KiB time=00:00:01.20 bitrate=3495.5kbits/s speed=0.0102x elapsed=0:01:57.49    \nframe=   74 fps=0.6 q=41.5 size=     512KiB time=00:00:01.20 bitrate=3495.5kbits/s speed=0.0102x elapsed=0:01:58.04    \nframe=   74 fps=0.6 q=41.5 size=     512KiB time=00:00:01.20 bitrate=3495.5kbits/s speed=0.0101x elapsed=0:01:58.64    \nframe=   74 fps=0.6 q=41.5 size=     512KiB time=00:00:01.20 bitrate=3495.5kbits/s speed=0.0101x elapsed=0:01:59.21    \nframe=   74 fps=0.6 q=41.5 size=     512KiB time=00:00:01.20 bitrate=3495.5kbits/s speed=0.01x elapsed=0:01:59.80    \nframe=   74 fps=0.6 q=41.5 size=     512KiB time=00:00:01.20 bitrate=3495.5kbits/s speed=0.00996x elapsed=0:02:00.43    \nframe=   74 fps=0.6 q=41.5 size=     512KiB time=00:00:01.20 bitrate=3495.5kbits/s speed=0.00992x elapsed=0:02:00.98    \nframe=   75 fps=0.6 q=41.2 size=     512KiB time=00:00:01.21 bitrate=3447.7kbits/s speed=0.01x elapsed=0:02:01.52    \nframe=   76 fps=0.6 q=41.4 size=     512KiB time=00:00:01.23 bitrate=3401.1kbits/s speed=0.0101x elapsed=0:02:02.05    \nframe=   76 fps=0.6 q=41.4 size=     512KiB time=00:00:01.23 bitrate=3401.1kbits/s speed=0.0101x elapsed=0:02:02.59    \nframe=   77 fps=0.6 q=34.8 size=     512KiB time=00:00:01.25 bitrate=3355.7kbits/s speed=0.0102x elapsed=0:02:03.14    \nframe=   78 fps=0.6 q=40.3 size=     512KiB time=00:00:01.26 bitrate=3311.6kbits/s speed=0.0102x elapsed=0:02:03.67    \nframe=   78 fps=0.6 q=40.3 size=     512KiB time=00:00:01.26 bitrate=3311.6kbits/s speed=0.0102x elapsed=0:02:04.18    \nframe=   78 fps=0.6 q=40.3 size=     512KiB time=00:00:01.26 bitrate=3311.6kbits/s speed=0.0102x elapsed=0:02:04.69    \nframe=   78 fps=0.6 q=40.3 size=     512KiB time=00:00:01.26 bitrate=3311.6kbits/s speed=0.0101x elapsed=0:02:05.27    \nframe=   79 fps=0.6 q=41.5 size=     512KiB time=00:00:01.28 bitrate=3268.6kbits/s speed=0.0102x elapsed=0:02:05.89    \nframe=   79 fps=0.6 q=41.5 size=     512KiB time=00:00:01.28 bitrate=3268.6kbits/s speed=0.0101x elapsed=0:02:06.51    \nframe=   79 fps=0.6 q=41.5 size=     512KiB time=00:00:01.28 bitrate=3268.6kbits/s speed=0.0101x elapsed=0:02:07.13    \nframe=   80 fps=0.6 q=41.2 size=     512KiB time=00:00:01.30 bitrate=3226.7kbits/s speed=0.0102x elapsed=0:02:07.71    \nframe=   80 fps=0.6 q=41.2 size=     512KiB time=00:00:01.30 bitrate=3226.7kbits/s speed=0.0101x elapsed=0:02:08.24    \nframe=   80 fps=0.6 q=41.2 size=     512KiB time=00:00:01.30 bitrate=3226.7kbits/s speed=0.0101x elapsed=0:02:08.77    \nframe=   81 fps=0.6 q=41.0 size=     512KiB time=00:00:01.31 bitrate=3185.8kbits/s speed=0.0102x elapsed=0:02:09.29    \nframe=   81 fps=0.6 q=41.0 size=     512KiB time=00:00:01.31 bitrate=3185.8kbits/s speed=0.0101x elapsed=0:02:09.83    \nframe=   81 fps=0.6 q=41.0 size=     512KiB time=00:00:01.31 bitrate=3185.8kbits/s speed=0.0101x elapsed=0:02:10.38    \nframe=   82 fps=0.6 q=34.2 size=     512KiB time=00:00:01.33 bitrate=3146.0kbits/s speed=0.0102x elapsed=0:02:10.89    \nframe=   82 fps=0.6 q=34.2 size=     512KiB time=00:00:01.33 bitrate=3146.0kbits/s speed=0.0101x elapsed=0:02:11.41    \nframe=   83 fps=0.6 q=40.5 size=     512KiB time=00:00:01.35 bitrate=3107.2kbits/s speed=0.0102x elapsed=0:02:11.94    \nframe=   83 fps=0.6 q=40.5 size=     512KiB time=00:00:01.35 bitrate=3107.2kbits/s speed=0.0102x elapsed=0:02:12.44    \nframe=   84 fps=0.6 q=41.5 size=     512KiB time=00:00:01.36 bitrate=3069.3kbits/s speed=0.0103x elapsed=0:02:12.97    \nframe=   84 fps=0.6 q=41.5 size=     512KiB time=00:00:01.36 bitrate=3069.3kbits/s speed=0.0102x elapsed=0:02:13.51    \nframe=   85 fps=0.6 q=41.4 size=     512KiB time=00:00:01.38 bitrate=3032.3kbits/s speed=0.0103x elapsed=0:02:14.04    \nframe=   86 fps=0.6 q=41.5 size=     512KiB time=00:00:01.40 bitrate=2996.2kbits/s speed=0.0104x elapsed=0:02:14.56    \nframe=   87 fps=0.6 q=34.7 size=     512KiB time=00:00:01.41 bitrate=2960.9kbits/s speed=0.0105x elapsed=0:02:15.11    \nframe=   88 fps=0.6 q=40.5 size=     512KiB time=00:00:01.43 bitrate=2926.5kbits/s speed=0.0106x elapsed=0:02:15.65    \nframe=   89 fps=0.7 q=41.5 size=     512KiB time=00:00:01.45 bitrate=2892.9kbits/s speed=0.0106x elapsed=0:02:16.17    \nframe=   89 fps=0.7 q=41.5 size=     512KiB time=00:00:01.45 bitrate=2892.9kbits/s speed=0.0106x elapsed=0:02:16.69    \nframe=   90 fps=0.7 q=41.3 size=     512KiB time=00:00:01.46 bitrate=2860.0kbits/s speed=0.0107x elapsed=0:02:17.19    \nframe=   91 fps=0.7 q=41.6 size=     512KiB time=00:00:01.48 bitrate=2827.9kbits/s speed=0.0108x elapsed=0:02:17.71    \nframe=   91 fps=0.7 q=41.6 size=     512KiB time=00:00:01.48 bitrate=2827.9kbits/s speed=0.0107x elapsed=0:02:18.24    \nframe=   91 fps=0.7 q=41.6 size=     512KiB time=00:00:01.48 bitrate=2827.9kbits/s speed=0.0107x elapsed=0:02:18.79    \nframe=   92 fps=0.7 q=34.5 size=     512KiB time=00:00:01.50 bitrate=2796.4kbits/s speed=0.0108x elapsed=0:02:19.36    \nframe=   93 fps=0.7 q=40.4 size=     512KiB time=00:00:01.51 bitrate=2765.7kbits/s speed=0.0108x elapsed=0:02:19.89    \nframe=   93 fps=0.7 q=40.4 size=     512KiB time=00:00:01.51 bitrate=2765.7kbits/s speed=0.0108x elapsed=0:02:20.40    \nframe=   93 fps=0.7 q=40.4 size=     512KiB time=00:00:01.51 bitrate=2765.7kbits/s speed=0.0108x elapsed=0:02:20.92    \nframe=   94 fps=0.7 q=41.6 size=     512KiB time=00:00:01.53 bitrate=2735.6kbits/s speed=0.0108x elapsed=0:02:21.44    \nframe=   94 fps=0.7 q=41.6 size=     512KiB time=00:00:01.53 bitrate=2735.6kbits/s speed=0.0108x elapsed=0:02:21.95    \nframe=   95 fps=0.7 q=41.3 size=     512KiB time=00:00:01.55 bitrate=2706.2kbits/s speed=0.0109x elapsed=0:02:22.49    \nframe=   96 fps=0.7 q=41.7 size=     512KiB time=00:00:01.56 bitrate=2677.4kbits/s speed=0.011x elapsed=0:02:23.04    \nframe=   97 fps=0.7 q=35.1 size=     512KiB time=00:00:01.58 bitrate=2649.3kbits/s speed=0.011x elapsed=0:02:23.59    \nframe=   97 fps=0.7 q=35.1 size=     512KiB time=00:00:01.58 bitrate=2649.3kbits/s speed=0.011x elapsed=0:02:24.12    \nframe=   98 fps=0.7 q=40.6 size=     512KiB time=00:00:01.60 bitrate=2621.7kbits/s speed=0.0111x elapsed=0:02:24.63    \nframe=   98 fps=0.7 q=40.6 size=     512KiB time=00:00:01.60 bitrate=2621.7kbits/s speed=0.011x elapsed=0:02:25.16    \nframe=   98 fps=0.7 q=40.6 size=     512KiB time=00:00:01.60 bitrate=2621.7kbits/s speed=0.011x elapsed=0:02:25.71    \nframe=   99 fps=0.7 q=41.5 size=     768KiB time=00:00:01.61 bitrate=3891.8kbits/s speed=0.0111x elapsed=0:02:26.23    \nframe=   99 fps=0.7 q=41.5 size=     768KiB time=00:00:01.61 bitrate=3891.8kbits/s speed=0.011x elapsed=0:02:26.78    \nframe=  100 fps=0.7 q=41.5 size=     768KiB time=00:00:01.63 bitrate=3852.1kbits/s speed=0.0111x elapsed=0:02:27.32    \nframe=  100 fps=0.7 q=41.5 size=     768KiB time=00:00:01.63 bitrate=3852.1kbits/s speed=0.011x elapsed=0:02:27.87    \nframe=  101 fps=0.7 q=41.5 size=     768KiB time=00:00:01.65 bitrate=3813.2kbits/s speed=0.0111x elapsed=0:02:28.38    \nframe=  101 fps=0.7 q=41.5 size=     768KiB time=00:00:01.65 bitrate=3813.2kbits/s speed=0.0111x elapsed=0:02:28.92    \nframe=  102 fps=0.7 q=35.1 size=     768KiB time=00:00:01.66 bitrate=3775.1kbits/s speed=0.0112x elapsed=0:02:29.45    \nframe=  102 fps=0.7 q=35.1 size=     768KiB time=00:00:01.66 bitrate=3775.1kbits/s speed=0.0111x elapsed=0:02:29.99    \nframe=  102 fps=0.7 q=35.1 size=     768KiB time=00:00:01.66 bitrate=3775.1kbits/s speed=0.0111x elapsed=0:02:30.54    \nframe=  102 fps=0.7 q=35.1 size=     768KiB time=00:00:01.66 bitrate=3775.1kbits/s speed=0.011x elapsed=0:02:31.19    \nframe=  102 fps=0.7 q=35.1 size=     768KiB time=00:00:01.66 bitrate=3775.1kbits/s speed=0.011x elapsed=0:02:31.75    \nframe=  103 fps=0.7 q=40.4 size=     768KiB time=00:00:01.68 bitrate=3737.7kbits/s speed=0.0111x elapsed=0:02:32.28    \nframe=  103 fps=0.7 q=40.4 size=     768KiB time=00:00:01.68 bitrate=3737.7kbits/s speed=0.011x elapsed=0:02:32.85    \nframe=  103 fps=0.7 q=40.4 size=     768KiB time=00:00:01.68 bitrate=3737.7kbits/s speed=0.011x elapsed=0:02:33.37    \nframe=  103 fps=0.7 q=40.4 size=     768KiB time=00:00:01.68 bitrate=3737.7kbits/s speed=0.0109x elapsed=0:02:33.91    \nframe=  103 fps=0.7 q=40.4 size=     768KiB time=00:00:01.68 bitrate=3737.7kbits/s speed=0.0109x elapsed=0:02:34.41    \nframe=  103 fps=0.7 q=40.4 size=     768KiB time=00:00:01.68 bitrate=3737.7kbits/s speed=0.0109x elapsed=0:02:34.93    \nframe=  104 fps=0.7 q=41.6 size=     768KiB time=00:00:01.70 bitrate=3701.1kbits/s speed=0.0109x elapsed=0:02:35.46    \nframe=  104 fps=0.7 q=41.6 size=     768KiB time=00:00:01.70 bitrate=3701.1kbits/s speed=0.0109x elapsed=0:02:35.99    \nframe=  104 fps=0.7 q=41.6 size=     768KiB time=00:00:01.70 bitrate=3701.1kbits/s speed=0.0109x elapsed=0:02:36.57    \nframe=  104 fps=0.7 q=41.6 size=     768KiB time=00:00:01.70 bitrate=3701.1kbits/s speed=0.0108x elapsed=0:02:37.18    \nframe=  104 fps=0.7 q=41.6 size=     768KiB time=00:00:01.70 bitrate=3701.1kbits/s speed=0.0108x elapsed=0:02:37.73    \nframe=  105 fps=0.7 q=41.4 size=     768KiB time=00:00:01.71 bitrate=3665.1kbits/s speed=0.0108x elapsed=0:02:38.25    \nframe=  105 fps=0.7 q=41.4 size=     768KiB time=00:00:01.71 bitrate=3665.1kbits/s speed=0.0108x elapsed=0:02:38.78    \nframe=  106 fps=0.7 q=41.5 size=     768KiB time=00:00:01.73 bitrate=3629.9kbits/s speed=0.0109x elapsed=0:02:39.32    \nframe=  106 fps=0.7 q=41.5 size=     768KiB time=00:00:01.73 bitrate=3629.9kbits/s speed=0.0108x elapsed=0:02:39.86    \nframe=  106 fps=0.7 q=41.5 size=     768KiB time=00:00:01.73 bitrate=3629.9kbits/s speed=0.0108x elapsed=0:02:40.39    \nframe=  107 fps=0.7 q=34.4 size=     768KiB time=00:00:01.75 bitrate=3595.3kbits/s speed=0.0109x elapsed=0:02:40.91    \nframe=  108 fps=0.7 q=40.6 size=     768KiB time=00:00:01.76 bitrate=3561.4kbits/s speed=0.0109x elapsed=0:02:41.44    \nframe=  108 fps=0.7 q=40.6 size=     768KiB time=00:00:01.76 bitrate=3561.4kbits/s speed=0.0109x elapsed=0:02:41.99    \nframe=  109 fps=0.7 q=41.8 size=     768KiB time=00:00:01.78 bitrate=3528.1kbits/s speed=0.011x elapsed=0:02:42.53    \nframe=  109 fps=0.7 q=41.8 size=     768KiB time=00:00:01.78 bitrate=3528.1kbits/s speed=0.0109x elapsed=0:02:43.06    \nframe=  109 fps=0.7 q=41.8 size=     768KiB time=00:00:01.78 bitrate=3528.1kbits/s speed=0.0109x elapsed=0:02:43.59    \nframe=  109 fps=0.7 q=41.8 size=     768KiB time=00:00:01.78 bitrate=3528.1kbits/s speed=0.0109x elapsed=0:02:44.17    \nframe=  109 fps=0.7 q=41.8 size=     768KiB time=00:00:01.78 bitrate=3528.1kbits/s speed=0.0108x elapsed=0:02:44.75    \nframe=  110 fps=0.7 q=41.5 size=     768KiB time=00:00:01.80 bitrate=3495.4kbits/s speed=0.0109x elapsed=0:02:45.27    \nframe=  110 fps=0.7 q=41.5 size=     768KiB time=00:00:01.80 bitrate=3495.4kbits/s speed=0.0109x elapsed=0:02:45.85    \nframe=  110 fps=0.7 q=41.5 size=     768KiB time=00:00:01.80 bitrate=3495.4kbits/s speed=0.0108x elapsed=0:02:46.43    \nframe=  110 fps=0.7 q=41.5 size=     768KiB time=00:00:01.80 bitrate=3495.4kbits/s speed=0.0108x elapsed=0:02:47.04    \nframe=  110 fps=0.7 q=41.5 size=     768KiB time=00:00:01.80 bitrate=3495.4kbits/s speed=0.0107x elapsed=0:02:47.62    \nframe=  111 fps=0.7 q=41.7 size=     768KiB time=00:00:01.81 bitrate=3463.4kbits/s speed=0.0108x elapsed=0:02:48.15    \nframe=  111 fps=0.7 q=41.7 size=     768KiB time=00:00:01.81 bitrate=3463.4kbits/s speed=0.0108x elapsed=0:02:48.66    \nframe=  111 fps=0.7 q=41.7 size=     768KiB time=00:00:01.81 bitrate=3463.4kbits/s speed=0.0107x elapsed=0:02:49.19    \nframe=  112 fps=0.7 q=35.1 size=     768KiB time=00:00:01.83 bitrate=3431.9kbits/s speed=0.0108x elapsed=0:02:49.74    \nframe=  112 fps=0.7 q=35.1 size=     768KiB time=00:00:01.83 bitrate=3431.9kbits/s speed=0.0108x elapsed=0:02:50.27    \nframe=  113 fps=0.7 q=40.5 size=     768KiB time=00:00:01.85 bitrate=3401.0kbits/s speed=0.0108x elapsed=0:02:50.77    \nframe=  113 fps=0.7 q=40.5 size=     768KiB time=00:00:01.85 bitrate=3401.0kbits/s speed=0.0108x elapsed=0:02:51.30    \nframe=  114 fps=0.7 q=41.6 size=     768KiB time=00:00:01.86 bitrate=3370.6kbits/s speed=0.0109x elapsed=0:02:51.81    \nframe=  115 fps=0.7 q=41.3 size=     768KiB time=00:00:01.88 bitrate=3340.8kbits/s speed=0.0109x elapsed=0:02:52.33    \nframe=  115 fps=0.7 q=41.3 size=     768KiB time=00:00:01.88 bitrate=3340.8kbits/s speed=0.0109x elapsed=0:02:52.87    \nframe=  115 fps=0.7 q=41.3 size=     768KiB time=00:00:01.88 bitrate=3340.8kbits/s speed=0.0109x elapsed=0:02:53.45    \nframe=  116 fps=0.7 q=41.6 size=     768KiB time=00:00:01.90 bitrate=3311.5kbits/s speed=0.0109x elapsed=0:02:53.97    \nframe=  116 fps=0.7 q=41.6 size=     768KiB time=00:00:01.90 bitrate=3311.5kbits/s speed=0.0109x elapsed=0:02:54.47    \nframe=  116 fps=0.7 q=41.6 size=     768KiB time=00:00:01.90 bitrate=3311.5kbits/s speed=0.0109x elapsed=0:02:55.00    \nframe=  117 fps=0.7 q=34.4 size=     768KiB time=00:00:01.91 bitrate=3282.7kbits/s speed=0.0109x elapsed=0:02:55.51    \nframe=  117 fps=0.7 q=34.4 size=     768KiB time=00:00:01.91 bitrate=3282.7kbits/s speed=0.0109x elapsed=0:02:56.02    \nframe=  117 fps=0.7 q=34.4 size=     768KiB time=00:00:01.91 bitrate=3282.7kbits/s speed=0.0109x elapsed=0:02:56.54    \nframe=  118 fps=0.7 q=40.6 size=     768KiB time=00:00:01.93 bitrate=3254.4kbits/s speed=0.0109x elapsed=0:02:57.07    \nframe=  118 fps=0.7 q=40.6 size=     768KiB time=00:00:01.93 bitrate=3254.4kbits/s speed=0.0109x elapsed=0:02:57.60    \nframe=  118 fps=0.7 q=40.6 size=     768KiB time=00:00:01.93 bitrate=3254.4kbits/s speed=0.0109x elapsed=0:02:58.14    \nframe=  119 fps=0.7 q=41.7 size=     768KiB time=00:00:01.95 bitrate=3226.6kbits/s speed=0.0109x elapsed=0:02:58.66    \nframe=  120 fps=0.7 q=41.4 size=     768KiB time=00:00:01.96 bitrate=3199.2kbits/s speed=0.011x elapsed=0:02:59.20    \nframe=  120 fps=0.7 q=41.4 size=     768KiB time=00:00:01.96 bitrate=3199.2kbits/s speed=0.0109x elapsed=0:02:59.75    \nframe=  121 fps=0.7 q=41.7 size=     768KiB time=00:00:01.98 bitrate=3172.3kbits/s speed=0.011x elapsed=0:03:00.29    \nframe=  122 fps=0.7 q=34.4 size=     768KiB time=00:00:02.00 bitrate=3145.9kbits/s speed=0.0111x elapsed=0:03:00.81    \nframe=  123 fps=0.7 q=40.5 size=     768KiB time=00:00:02.01 bitrate=3119.9kbits/s speed=0.0111x elapsed=0:03:01.33    \nframe=  124 fps=0.7 q=41.8 size=     768KiB time=00:00:02.03 bitrate=3094.3kbits/s speed=0.0112x elapsed=0:03:01.86    \nframe=  124 fps=0.7 q=41.8 size=     768KiB time=00:00:02.03 bitrate=3094.3kbits/s speed=0.0111x elapsed=0:03:02.39    \nframe=  124 fps=0.7 q=41.8 size=     768KiB time=00:00:02.03 bitrate=3094.3kbits/s speed=0.0111x elapsed=0:03:02.94    \nframe=  125 fps=0.7 q=41.7 size=     768KiB time=00:00:02.05 bitrate=3069.2kbits/s speed=0.0112x elapsed=0:03:03.47    \nframe=  125 fps=0.7 q=41.7 size=     768KiB time=00:00:02.05 bitrate=3069.2kbits/s speed=0.0111x elapsed=0:03:03.99    \nframe=  125 fps=0.7 q=41.7 size=     768KiB time=00:00:02.05 bitrate=3069.2kbits/s speed=0.0111x elapsed=0:03:04.53    \nframe=  126 fps=0.7 q=41.5 size=     768KiB time=00:00:02.06 bitrate=3044.4kbits/s speed=0.0112x elapsed=0:03:05.04    \nframe=  126 fps=0.7 q=41.5 size=     768KiB time=00:00:02.06 bitrate=3044.4kbits/s speed=0.0111x elapsed=0:03:05.56    \nframe=  127 fps=0.7 q=34.7 size=     768KiB time=00:00:02.08 bitrate=3020.1kbits/s speed=0.0112x elapsed=0:03:06.08    \nframe=  128 fps=0.7 q=40.3 size=     768KiB time=00:00:02.10 bitrate=2996.1kbits/s speed=0.0113x elapsed=0:03:06.60    \nframe=  129 fps=0.7 q=41.4 size=     768KiB time=00:00:02.11 bitrate=2972.5kbits/s speed=0.0113x elapsed=0:03:07.13    \nframe=  129 fps=0.7 q=41.4 size=     768KiB time=00:00:02.11 bitrate=2972.5kbits/s speed=0.0113x elapsed=0:03:07.68    \nframe=  129 fps=0.7 q=41.4 size=     768KiB time=00:00:02.11 bitrate=2972.5kbits/s speed=0.0112x elapsed=0:03:08.21    \nframe=  130 fps=0.7 q=41.1 size=     768KiB time=00:00:02.13 bitrate=2949.3kbits/s speed=0.0113x elapsed=0:03:08.74    \nframe=  130 fps=0.7 q=41.1 size=     768KiB time=00:00:02.13 bitrate=2949.3kbits/s speed=0.0113x elapsed=0:03:09.26    \nframe=  131 fps=0.7 q=41.3 size=     768KiB time=00:00:02.15 bitrate=2926.4kbits/s speed=0.0113x elapsed=0:03:09.80    \nframe=  131 fps=0.7 q=41.3 size=     768KiB time=00:00:02.15 bitrate=2926.4kbits/s speed=0.0113x elapsed=0:03:10.32    \nframe=  133 fps=0.7 q=40.1 size=    1024KiB time=00:00:02.18 bitrate=3842.3kbits/s speed=0.0114x elapsed=0:03:10.84    \nframe=  133 fps=0.7 q=40.1 size=    1024KiB time=00:00:02.18 bitrate=3842.3kbits/s speed=0.0114x elapsed=0:03:11.36    \nframe=  134 fps=0.7 q=41.4 size=    1024KiB time=00:00:02.20 bitrate=3813.2kbits/s speed=0.0115x elapsed=0:03:11.90    \nframe=  135 fps=0.7 q=41.0 size=    1024KiB time=00:00:02.21 bitrate=3784.5kbits/s speed=0.0115x elapsed=0:03:12.42    \nframe=  136 fps=0.7 q=41.3 size=    1024KiB time=00:00:02.23 bitrate=3756.3kbits/s speed=0.0116x elapsed=0:03:12.93    \nframe=  137 fps=0.7 q=34.4 size=    1024KiB time=00:00:02.25 bitrate=3728.4kbits/s speed=0.0116x elapsed=0:03:13.46    \nframe=  138 fps=0.7 q=40.2 size=    1024KiB time=00:00:02.26 bitrate=3701.0kbits/s speed=0.0117x elapsed=0:03:14.01    \nframe=  138 fps=0.7 q=40.2 size=    1024KiB time=00:00:02.26 bitrate=3701.0kbits/s speed=0.0117x elapsed=0:03:14.54    \nframe=  138 fps=0.7 q=40.2 size=    1024KiB time=00:00:02.26 bitrate=3701.0kbits/s speed=0.0116x elapsed=0:03:15.06    \nframe=  139 fps=0.7 q=41.3 size=    1024KiB time=00:00:02.28 bitrate=3674.0kbits/s speed=0.0117x elapsed=0:03:15.58    \nframe=  139 fps=0.7 q=41.3 size=    1024KiB time=00:00:02.28 bitrate=3674.0kbits/s speed=0.0116x elapsed=0:03:16.09    \nframe=  141 fps=0.7 q=41.0 size=    1024KiB time=00:00:02.31 bitrate=3621.1kbits/s speed=0.0118x elapsed=0:03:16.61    \nframe=  141 fps=0.7 q=41.0 size=    1024KiB time=00:00:02.31 bitrate=3621.1kbits/s speed=0.0118x elapsed=0:03:17.12    \nframe=  142 fps=0.7 q=34.3 size=    1024KiB time=00:00:02.33 bitrate=3595.3kbits/s speed=0.0118x elapsed=0:03:17.64    \nframe=  142 fps=0.7 q=34.3 size=    1024KiB time=00:00:02.33 bitrate=3595.3kbits/s speed=0.0118x elapsed=0:03:18.16    \nframe=  143 fps=0.7 q=40.1 size=    1024KiB time=00:00:02.35 bitrate=3569.8kbits/s speed=0.0118x elapsed=0:03:18.68    \nframe=  144 fps=0.7 q=41.2 size=    1024KiB time=00:00:02.36 bitrate=3544.6kbits/s speed=0.0119x elapsed=0:03:19.18    \nframe=  145 fps=0.7 q=41.2 size=    1024KiB time=00:00:02.38 bitrate=3519.8kbits/s speed=0.0119x elapsed=0:03:19.70    \nframe=  146 fps=0.7 q=41.5 size=    1024KiB time=00:00:02.40 bitrate=3495.4kbits/s speed=0.012x elapsed=0:03:20.21    \nframe=  147 fps=0.7 q=34.1 size=    1024KiB time=00:00:02.41 bitrate=3471.3kbits/s speed=0.012x elapsed=0:03:20.74    \nframe=  148 fps=0.7 q=40.1 size=    1024KiB time=00:00:02.43 bitrate=3447.5kbits/s speed=0.0121x elapsed=0:03:21.26    \nframe=  148 fps=0.7 q=40.1 size=    1024KiB time=00:00:02.43 bitrate=3447.5kbits/s speed=0.0121x elapsed=0:03:21.79    \nframe=  149 fps=0.7 q=41.4 size=    1024KiB time=00:00:02.45 bitrate=3424.1kbits/s speed=0.0121x elapsed=0:03:22.31    \nframe=  150 fps=0.7 q=41.2 size=    1024KiB time=00:00:02.46 bitrate=3400.9kbits/s speed=0.0122x elapsed=0:03:22.83    \nframe=  151 fps=0.7 q=41.3 size=    1024KiB time=00:00:02.48 bitrate=3378.1kbits/s speed=0.0122x elapsed=0:03:23.39    \nframe=  153 fps=0.8 q=40.0 size=    1024KiB time=00:00:02.51 bitrate=3333.4kbits/s speed=0.0123x elapsed=0:03:23.91    \nframe=  153 fps=0.7 q=40.0 size=    1024KiB time=00:00:02.51 bitrate=3333.4kbits/s speed=0.0123x elapsed=0:03:24.42    \nframe=  153 fps=0.7 q=40.0 size=    1024KiB time=00:00:02.51 bitrate=3333.4kbits/s speed=0.0123x elapsed=0:03:24.94    \nframe=  153 fps=0.7 q=40.0 size=    1024KiB time=00:00:02.51 bitrate=3333.4kbits/s speed=0.0122x elapsed=0:03:25.49    \nframe=  154 fps=0.7 q=41.5 size=    1024KiB time=00:00:02.53 bitrate=3311.4kbits/s speed=0.0123x elapsed=0:03:26.07    \nframe=  154 fps=0.7 q=41.5 size=    1024KiB time=00:00:02.53 bitrate=3311.4kbits/s speed=0.0123x elapsed=0:03:26.60    \nframe=  154 fps=0.7 q=41.5 size=    1024KiB time=00:00:02.53 bitrate=3311.4kbits/s speed=0.0122x elapsed=0:03:27.16    \nframe=  154 fps=0.7 q=41.5 size=    1024KiB time=00:00:02.53 bitrate=3311.4kbits/s speed=0.0122x elapsed=0:03:27.88    \nframe=  154 fps=0.7 q=41.5 size=    1024KiB time=00:00:02.53 bitrate=3311.4kbits/s speed=0.0122x elapsed=0:03:28.46    \nframe=  155 fps=0.7 q=40.9 size=    1024KiB time=00:00:02.55 bitrate=3289.8kbits/s speed=0.0122x elapsed=0:03:29.01    \nframe=  155 fps=0.7 q=40.9 size=    1024KiB time=00:00:02.55 bitrate=3289.8kbits/s speed=0.0122x elapsed=0:03:29.57    \nframe=  155 fps=0.7 q=40.9 size=    1024KiB time=00:00:02.55 bitrate=3289.8kbits/s speed=0.0121x elapsed=0:03:30.08    \nframe=  156 fps=0.7 q=41.2 size=    1024KiB time=00:00:02.56 bitrate=3268.4kbits/s speed=0.0122x elapsed=0:03:30.60    \nframe=  156 fps=0.7 q=41.2 size=    1024KiB time=00:00:02.56 bitrate=3268.4kbits/s speed=0.0122x elapsed=0:03:31.12    \nframe=  157 fps=0.7 q=34.4 size=    1024KiB time=00:00:02.58 bitrate=3247.3kbits/s speed=0.0122x elapsed=0:03:31.65    \nframe=  158 fps=0.7 q=40.0 size=    1024KiB time=00:00:02.60 bitrate=3226.5kbits/s speed=0.0123x elapsed=0:03:32.18    \nframe=  159 fps=0.7 q=41.3 size=    1024KiB time=00:00:02.61 bitrate=3206.0kbits/s speed=0.0123x elapsed=0:03:32.71    \nframe=  159 fps=0.7 q=41.3 size=    1024KiB time=00:00:02.61 bitrate=3206.0kbits/s speed=0.0123x elapsed=0:03:33.23    \nframe=  159 fps=0.7 q=41.3 size=    1024KiB time=00:00:02.61 bitrate=3206.0kbits/s speed=0.0122x elapsed=0:03:33.77    \nframe=  161 fps=0.8 q=41.3 size=    1024KiB time=00:00:02.65 bitrate=3165.6kbits/s speed=0.0124x elapsed=0:03:34.27    \nframe=  162 fps=0.8 q=34.5 size=    1024KiB time=00:00:02.66 bitrate=3145.9kbits/s speed=0.0124x elapsed=0:03:34.80    \nframe=  163 fps=0.8 q=40.1 size=    1024KiB time=00:00:02.68 bitrate=3126.3kbits/s speed=0.0125x elapsed=0:03:35.32    \nframe=  164 fps=0.8 q=41.5 size=    1280KiB time=00:00:02.70 bitrate=3883.7kbits/s speed=0.0125x elapsed=0:03:35.85    \nframe=  165 fps=0.8 q=41.2 size=    1280KiB time=00:00:02.71 bitrate=3859.9kbits/s speed=0.0126x elapsed=0:03:36.37    \nframe=  166 fps=0.8 q=41.3 size=    1280KiB time=00:00:02.73 bitrate=3836.4kbits/s speed=0.0126x elapsed=0:03:36.89    \nframe=  167 fps=0.8 q=34.5 size=    1280KiB time=00:00:02.75 bitrate=3813.1kbits/s speed=0.0126x elapsed=0:03:37.40    \nframe=  168 fps=0.8 q=40.1 size=    1280KiB time=00:00:02.76 bitrate=3790.2kbits/s speed=0.0127x elapsed=0:03:37.92    \nframe=  168 fps=0.8 q=40.1 size=    1280KiB time=00:00:02.76 bitrate=3790.2kbits/s speed=0.0127x elapsed=0:03:38.44    \nframe=  168 fps=0.8 q=40.1 size=    1280KiB time=00:00:02.76 bitrate=3790.2kbits/s speed=0.0126x elapsed=0:03:38.96    \nframe=  169 fps=0.8 q=41.4 size=    1280KiB time=00:00:02.78 bitrate=3767.5kbits/s speed=0.0127x elapsed=0:03:39.48    \nframe=  169 fps=0.8 q=41.4 size=    1280KiB time=00:00:02.78 bitrate=3767.5kbits/s speed=0.0127x elapsed=0:03:40.01    \nframe=  170 fps=0.8 q=41.0 size=    1280KiB time=00:00:02.80 bitrate=3745.0kbits/s speed=0.0127x elapsed=0:03:40.57    \nframe=  171 fps=0.8 q=41.1 size=    1280KiB time=00:00:02.81 bitrate=3722.9kbits/s speed=0.0127x elapsed=0:03:41.10    \nframe=  171 fps=0.8 q=41.1 size=    1280KiB time=00:00:02.81 bitrate=3722.9kbits/s speed=0.0127x elapsed=0:03:41.62    \nframe=  171 fps=0.8 q=41.1 size=    1280KiB time=00:00:02.81 bitrate=3722.9kbits/s speed=0.0127x elapsed=0:03:42.14    \nframe=  171 fps=0.8 q=41.1 size=    1280KiB time=00:00:02.81 bitrate=3722.9kbits/s speed=0.0126x elapsed=0:03:42.66    \nframe=  171 fps=0.8 q=41.1 size=    1280KiB time=00:00:02.81 bitrate=3722.9kbits/s speed=0.0126x elapsed=0:03:43.19    \nframe=  172 fps=0.8 q=34.6 size=    1280KiB time=00:00:02.83 bitrate=3701.0kbits/s speed=0.0127x elapsed=0:03:43.74    \nframe=  173 fps=0.8 q=39.9 size=    1280KiB time=00:00:02.85 bitrate=3679.3kbits/s speed=0.0127x elapsed=0:03:44.27    \nframe=  174 fps=0.8 q=41.2 size=    1280KiB time=00:00:02.86 bitrate=3657.9kbits/s speed=0.0128x elapsed=0:03:44.80    \nframe=  175 fps=0.8 q=40.9 size=    1280KiB time=00:00:02.88 bitrate=3636.8kbits/s speed=0.0128x elapsed=0:03:45.33    \nframe=  175 fps=0.8 q=40.9 size=    1280KiB time=00:00:02.88 bitrate=3636.8kbits/s speed=0.0128x elapsed=0:03:45.87    \nframe=  175 fps=0.8 q=40.9 size=    1280KiB time=00:00:02.88 bitrate=3636.8kbits/s speed=0.0127x elapsed=0:03:46.44    \nframe=  177 fps=0.8 q=34.4 size=    1280KiB time=00:00:02.91 bitrate=3595.2kbits/s speed=0.0129x elapsed=0:03:46.96    \nframe=  177 fps=0.8 q=34.4 size=    1280KiB time=00:00:02.91 bitrate=3595.2kbits/s speed=0.0128x elapsed=0:03:47.50    \nframe=  177 fps=0.8 q=34.4 size=    1280KiB time=00:00:02.91 bitrate=3595.2kbits/s speed=0.0128x elapsed=0:03:48.02    \nframe=  177 fps=0.8 q=34.4 size=    1280KiB time=00:00:02.91 bitrate=3595.2kbits/s speed=0.0128x elapsed=0:03:48.57    \nframe=  178 fps=0.8 q=39.9 size=    1280KiB time=00:00:02.93 bitrate=3574.8kbits/s speed=0.0128x elapsed=0:03:49.09    \nframe=  178 fps=0.8 q=39.9 size=    1280KiB time=00:00:02.93 bitrate=3574.8kbits/s speed=0.0128x elapsed=0:03:49.61    \nframe=  179 fps=0.8 q=41.1 size=    1280KiB time=00:00:02.95 bitrate=3554.6kbits/s speed=0.0128x elapsed=0:03:50.13    \nframe=  179 fps=0.8 q=41.1 size=    1280KiB time=00:00:02.95 bitrate=3554.6kbits/s speed=0.0128x elapsed=0:03:50.69    \nframe=  180 fps=0.8 q=40.8 size=    1280KiB time=00:00:02.96 bitrate=3534.6kbits/s speed=0.0128x elapsed=0:03:51.20    \nframe=  180 fps=0.8 q=40.8 size=    1280KiB time=00:00:02.96 bitrate=3534.6kbits/s speed=0.0128x elapsed=0:03:51.73    \nframe=  181 fps=0.8 q=40.9 size=    1280KiB time=00:00:02.98 bitrate=3514.9kbits/s speed=0.0128x elapsed=0:03:52.25    \nframe=  182 fps=0.8 q=34.0 size=    1280KiB time=00:00:03.00 bitrate=3495.4kbits/s speed=0.0129x elapsed=0:03:52.76    \nframe=  183 fps=0.8 q=39.6 size=    1280KiB time=00:00:03.01 bitrate=3476.1kbits/s speed=0.0129x elapsed=0:03:53.27    \nframe=  184 fps=0.8 q=40.8 size=    1280KiB time=00:00:03.03 bitrate=3457.0kbits/s speed=0.013x elapsed=0:03:53.80    \nframe=  185 fps=0.8 q=40.2 size=    1280KiB time=00:00:03.05 bitrate=3438.1kbits/s speed=0.013x elapsed=0:03:54.33    \nframe=  185 fps=0.8 q=40.2 size=    1280KiB time=00:00:03.05 bitrate=3438.1kbits/s speed=0.013x elapsed=0:03:54.83    \nframe=  186 fps=0.8 q=40.8 size=    1280KiB time=00:00:03.06 bitrate=3419.4kbits/s speed=0.013x elapsed=0:03:55.35    \nframe=  186 fps=0.8 q=40.8 size=    1280KiB time=00:00:03.06 bitrate=3419.4kbits/s speed=0.013x elapsed=0:03:55.87    \nframe=  187 fps=0.8 q=34.1 size=    1280KiB time=00:00:03.08 bitrate=3400.9kbits/s speed=0.013x elapsed=0:03:56.38    \nframe=  188 fps=0.8 q=39.5 size=    1280KiB time=00:00:03.10 bitrate=3382.6kbits/s speed=0.0131x elapsed=0:03:56.91    \nframe=  188 fps=0.8 q=39.5 size=    1280KiB time=00:00:03.10 bitrate=3382.6kbits/s speed=0.0131x elapsed=0:03:57.44    \nframe=  189 fps=0.8 q=40.7 size=    1280KiB time=00:00:03.11 bitrate=3364.5kbits/s speed=0.0131x elapsed=0:03:57.96    \nframe=  189 fps=0.8 q=40.7 size=    1280KiB time=00:00:03.11 bitrate=3364.5kbits/s speed=0.0131x elapsed=0:03:58.48    \nframe=  190 fps=0.8 q=40.6 size=    1280KiB time=00:00:03.13 bitrate=3346.6kbits/s speed=0.0131x elapsed=0:03:59.01    \nframe=  192 fps=0.8 q=33.8 size=    1280KiB time=00:00:03.16 bitrate=3311.4kbits/s speed=0.0132x elapsed=0:03:59.54    \nframe=  192 fps=0.8 q=33.8 size=    1280KiB time=00:00:03.16 bitrate=3311.4kbits/s speed=0.0132x elapsed=0:04:00.05    \nframe=  193 fps=0.8 q=39.3 size=    1280KiB time=00:00:03.18 bitrate=3294.1kbits/s speed=0.0132x elapsed=0:04:00.63    \nframe=  193 fps=0.8 q=39.3 size=    1280KiB time=00:00:03.18 bitrate=3294.1kbits/s speed=0.0132x elapsed=0:04:01.20    \nframe=  193 fps=0.8 q=39.3 size=    1280KiB time=00:00:03.18 bitrate=3294.1kbits/s speed=0.0132x elapsed=0:04:01.75    \nframe=  195 fps=0.8 q=40.4 size=    1280KiB time=00:00:03.21 bitrate=3259.9kbits/s speed=0.0133x elapsed=0:04:02.26    \nframe=  195 fps=0.8 q=40.4 size=    1280KiB time=00:00:03.21 bitrate=3259.9kbits/s speed=0.0132x elapsed=0:04:02.78    \nframe=  196 fps=0.8 q=40.2 size=    1536KiB time=00:00:03.23 bitrate=3891.7kbits/s speed=0.0133x elapsed=0:04:03.30    \nframe=  198 fps=0.8 q=39.3 size=    1536KiB time=00:00:03.26 bitrate=3852.0kbits/s speed=0.0134x elapsed=0:04:03.83    \nframe=  198 fps=0.8 q=39.3 size=    1536KiB time=00:00:03.26 bitrate=3852.0kbits/s speed=0.0134x elapsed=0:04:04.35    \nframe=  199 fps=0.8 q=40.5 size=    1536KiB time=00:00:03.28 bitrate=3832.5kbits/s speed=0.0134x elapsed=0:04:04.88    \nframe=  201 fps=0.8 q=40.1 size=    1536KiB time=00:00:03.31 bitrate=3793.9kbits/s speed=0.0135x elapsed=0:04:05.41    \nframe=  201 fps=0.8 q=40.1 size=    1536KiB time=00:00:03.31 bitrate=3793.9kbits/s speed=0.0135x elapsed=0:04:05.91    \nframe=  201 fps=0.8 q=40.1 size=    1536KiB time=00:00:03.31 bitrate=3793.9kbits/s speed=0.0135x elapsed=0:04:06.44    \nframe=  202 fps=0.8 q=33.9 size=    1536KiB time=00:00:03.33 bitrate=3775.0kbits/s speed=0.0135x elapsed=0:04:06.95    \nframe=  203 fps=0.8 q=39.5 size=    1536KiB time=00:00:03.35 bitrate=3756.2kbits/s speed=0.0135x elapsed=0:04:07.48    \nframe=  204 fps=0.8 q=40.2 size=    1536KiB time=00:00:03.36 bitrate=3737.6kbits/s speed=0.0136x elapsed=0:04:08.00    \nframe=  205 fps=0.8 q=40.2 size=    1536KiB time=00:00:03.38 bitrate=3719.2kbits/s speed=0.0136x elapsed=0:04:08.52    \nframe=  206 fps=0.8 q=40.2 size=    1536KiB time=00:00:03.40 bitrate=3701.0kbits/s speed=0.0137x elapsed=0:04:09.04    \nframe=  207 fps=0.8 q=33.8 size=    1536KiB time=00:00:03.41 bitrate=3682.9kbits/s speed=0.0137x elapsed=0:04:09.56    \nframe=  208 fps=0.8 q=39.4 size=    1536KiB time=00:00:03.43 bitrate=3665.0kbits/s speed=0.0137x elapsed=0:04:10.09    \nframe=  209 fps=0.8 q=40.5 size=    1536KiB time=00:00:03.45 bitrate=3647.3kbits/s speed=0.0138x elapsed=0:04:10.62    \nframe=  209 fps=0.8 q=40.5 size=    1536KiB time=00:00:03.45 bitrate=3647.3kbits/s speed=0.0137x elapsed=0:04:11.14    \nframe=  210 fps=0.8 q=39.9 size=    1536KiB time=00:00:03.46 bitrate=3629.8kbits/s speed=0.0138x elapsed=0:04:11.67    \nframe=  211 fps=0.8 q=39.9 size=    1536KiB time=00:00:03.48 bitrate=3612.4kbits/s speed=0.0138x elapsed=0:04:12.19    \nframe=  211 fps=0.8 q=39.9 size=    1536KiB time=00:00:03.48 bitrate=3612.4kbits/s speed=0.0138x elapsed=0:04:12.71    \nframe=  213 fps=0.8 q=39.4 size=    1536KiB time=00:00:03.51 bitrate=3578.2kbits/s speed=0.0139x elapsed=0:04:13.23    \nframe=  213 fps=0.8 q=39.4 size=    1536KiB time=00:00:03.51 bitrate=3578.2kbits/s speed=0.0139x elapsed=0:04:13.75    \nframe=  213 fps=0.8 q=39.4 size=    1536KiB time=00:00:03.51 bitrate=3578.2kbits/s speed=0.0138x elapsed=0:04:14.26    \nframe=  214 fps=0.8 q=40.4 size=    1536KiB time=00:00:03.53 bitrate=3561.3kbits/s speed=0.0139x elapsed=0:04:14.77    \nframe=  214 fps=0.8 q=40.4 size=    1536KiB time=00:00:03.53 bitrate=3561.3kbits/s speed=0.0138x elapsed=0:04:15.29    \nframe=  214 fps=0.8 q=40.4 size=    1536KiB time=00:00:03.53 bitrate=3561.3kbits/s speed=0.0138x elapsed=0:04:15.83    \nframe=  214 fps=0.8 q=40.4 size=    1536KiB time=00:00:03.53 bitrate=3561.3kbits/s speed=0.0138x elapsed=0:04:16.36    \nframe=  214 fps=0.8 q=40.4 size=    1536KiB time=00:00:03.53 bitrate=3561.3kbits/s speed=0.0137x elapsed=0:04:16.98    \nframe=  214 fps=0.8 q=40.4 size=    1536KiB time=00:00:03.53 bitrate=3561.3kbits/s speed=0.0137x elapsed=0:04:17.65    \nframe=  215 fps=0.8 q=39.8 size=    1536KiB time=00:00:03.55 bitrate=3544.6kbits/s speed=0.0137x elapsed=0:04:18.23    \nframe=  215 fps=0.8 q=39.8 size=    1536KiB time=00:00:03.55 bitrate=3544.6kbits/s speed=0.0137x elapsed=0:04:18.81    \nframe=  216 fps=0.8 q=40.1 size=    1536KiB time=00:00:03.56 bitrate=3528.0kbits/s speed=0.0138x elapsed=0:04:19.36    \nframe=  217 fps=0.8 q=34.1 size=    1536KiB time=00:00:03.58 bitrate=3511.6kbits/s speed=0.0138x elapsed=0:04:19.90    \nframe=  217 fps=0.8 q=34.1 size=    1536KiB time=00:00:03.58 bitrate=3511.6kbits/s speed=0.0138x elapsed=0:04:20.48    \nframe=  218 fps=0.8 q=39.6 size=    1536KiB time=00:00:03.60 bitrate=3495.4kbits/s speed=0.0138x elapsed=0:04:21.02    \nframe=  219 fps=0.8 q=40.6 size=    1536KiB time=00:00:03.61 bitrate=3479.2kbits/s speed=0.0138x elapsed=0:04:21.54    \nframe=  219 fps=0.8 q=40.6 size=    1536KiB time=00:00:03.61 bitrate=3479.2kbits/s speed=0.0138x elapsed=0:04:22.07    \nframe=  219 fps=0.8 q=40.6 size=    1536KiB time=00:00:03.61 bitrate=3479.2kbits/s speed=0.0138x elapsed=0:04:22.59    \nframe=  220 fps=0.8 q=40.6 size=    1536KiB time=00:00:03.63 bitrate=3463.3kbits/s speed=0.0138x elapsed=0:04:23.12    \nframe=  220 fps=0.8 q=40.6 size=    1536KiB time=00:00:03.63 bitrate=3463.3kbits/s speed=0.0138x elapsed=0:04:23.69    \nframe=  222 fps=0.8 q=34.5 size=    1536KiB time=00:00:03.66 bitrate=3431.8kbits/s speed=0.0139x elapsed=0:04:24.21    \nframe=  223 fps=0.8 q=39.8 size=    1536KiB time=00:00:03.68 bitrate=3416.3kbits/s speed=0.0139x elapsed=0:04:24.73    \nframe=  224 fps=0.8 q=41.2 size=    1536KiB time=00:00:03.70 bitrate=3400.9kbits/s speed=0.0139x elapsed=0:04:25.24    \nframe=  225 fps=0.8 q=41.1 size=    1536KiB time=00:00:03.71 bitrate=3385.6kbits/s speed=0.014x elapsed=0:04:25.76    \nframe=  225 fps=0.8 q=41.1 size=    1536KiB time=00:00:03.71 bitrate=3385.6kbits/s speed=0.014x elapsed=0:04:26.29    \nframe=  225 fps=0.8 q=41.1 size=    1536KiB time=00:00:03.71 bitrate=3385.6kbits/s speed=0.0139x elapsed=0:04:26.81    \nframe=  225 fps=0.8 q=41.1 size=    1536KiB time=00:00:03.71 bitrate=3385.6kbits/s speed=0.0139x elapsed=0:04:27.34    \nframe=  225 fps=0.8 q=41.1 size=    1536KiB time=00:00:03.71 bitrate=3385.6kbits/s speed=0.0139x elapsed=0:04:27.89    \nframe=  226 fps=0.8 q=41.1 size=    1536KiB time=00:00:03.73 bitrate=3370.5kbits/s speed=0.0139x elapsed=0:04:28.40    \nframe=  226 fps=0.8 q=41.1 size=    1536KiB time=00:00:03.73 bitrate=3370.5kbits/s speed=0.0139x elapsed=0:04:28.92    \nframe=  227 fps=0.8 q=34.4 size=    1536KiB time=00:00:03.75 bitrate=3355.5kbits/s speed=0.0139x elapsed=0:04:29.47    \nframe=  228 fps=0.8 q=41.6 size=    1792KiB time=00:00:03.76 bitrate=3897.5kbits/s speed=0.0139x elapsed=0:04:30.01    \nframe=  228 fps=0.8 q=41.6 size=    1792KiB time=00:00:03.76 bitrate=3897.5kbits/s speed=0.0139x elapsed=0:04:30.56    \nframe=  229 fps=0.8 q=42.1 size=    1792KiB time=00:00:03.78 bitrate=3880.3kbits/s speed=0.014x elapsed=0:04:31.08    \nframe=  230 fps=0.8 q=42.4 size=    1792KiB time=00:00:03.80 bitrate=3863.3kbits/s speed=0.014x elapsed=0:04:31.61    \nframe=  230 fps=0.8 q=42.4 size=    1792KiB time=00:00:03.80 bitrate=3863.3kbits/s speed=0.014x elapsed=0:04:32.13    \nframe=  230 fps=0.8 q=42.4 size=    1792KiB time=00:00:03.80 bitrate=3863.3kbits/s speed=0.0139x elapsed=0:04:32.65    \nframe=  231 fps=0.8 q=41.9 size=    1792KiB time=00:00:03.81 bitrate=3846.4kbits/s speed=0.014x elapsed=0:04:33.17    \nframe=  231 fps=0.8 q=41.9 size=    1792KiB time=00:00:03.81 bitrate=3846.4kbits/s speed=0.0139x elapsed=0:04:33.70    \nframe=  232 fps=0.8 q=36.4 size=    1792KiB time=00:00:03.83 bitrate=3829.7kbits/s speed=0.014x elapsed=0:04:34.23    \nframe=  233 fps=0.8 q=42.8 size=    1792KiB time=00:00:03.85 bitrate=3813.1kbits/s speed=0.014x elapsed=0:04:34.75    \nframe=  234 fps=0.9 q=42.9 size=    1792KiB time=00:00:03.86 bitrate=3796.7kbits/s speed=0.014x elapsed=0:04:35.28    \nframe=  235 fps=0.9 q=42.9 size=    1792KiB time=00:00:03.88 bitrate=3780.4kbits/s speed=0.0141x elapsed=0:04:35.81    \nframe=  235 fps=0.9 q=42.9 size=    1792KiB time=00:00:03.88 bitrate=3780.4kbits/s speed=0.0141x elapsed=0:04:36.33    \nframe=  235 fps=0.8 q=42.9 size=    1792KiB time=00:00:03.88 bitrate=3780.4kbits/s speed=0.014x elapsed=0:04:36.85    \nframe=  235 fps=0.8 q=42.9 size=    1792KiB time=00:00:03.88 bitrate=3780.4kbits/s speed=0.014x elapsed=0:04:37.37    \nframe=  236 fps=0.8 q=43.3 size=    1792KiB time=00:00:03.90 bitrate=3764.2kbits/s speed=0.014x elapsed=0:04:37.89    \nframe=  236 fps=0.8 q=43.3 size=    1792KiB time=00:00:03.90 bitrate=3764.2kbits/s speed=0.014x elapsed=0:04:38.42    \nframe=  237 fps=0.8 q=37.2 size=    1792KiB time=00:00:03.91 bitrate=3748.2kbits/s speed=0.014x elapsed=0:04:38.96    \nframe=  238 fps=0.9 q=43.4 size=    1792KiB time=00:00:03.93 bitrate=3732.3kbits/s speed=0.0141x elapsed=0:04:39.48    \nframe=  238 fps=0.8 q=43.4 size=    1792KiB time=00:00:03.93 bitrate=3732.3kbits/s speed=0.014x elapsed=0:04:40.01    \nframe=  238 fps=0.8 q=43.4 size=    1792KiB time=00:00:03.93 bitrate=3732.3kbits/s speed=0.014x elapsed=0:04:40.52    \nframe=  238 fps=0.8 q=43.4 size=    1792KiB time=00:00:03.93 bitrate=3732.3kbits/s speed=0.014x elapsed=0:04:41.05    \nframe=  239 fps=0.8 q=43.5 size=    1792KiB time=00:00:03.95 bitrate=3716.6kbits/s speed=0.014x elapsed=0:04:41.58    \nframe=  239 fps=0.8 q=43.5 size=    1792KiB time=00:00:03.95 bitrate=3716.6kbits/s speed=0.014x elapsed=0:04:42.09    \nframe=  240 fps=0.8 q=43.9 size=    1792KiB time=00:00:03.96 bitrate=3700.9kbits/s speed=0.014x elapsed=0:04:42.62    \nframe=  240 fps=0.8 q=43.9 size=    1792KiB time=00:00:03.96 bitrate=3700.9kbits/s speed=0.014x elapsed=0:04:43.14    \nframe=  240 fps=0.8 q=43.9 size=    1792KiB time=00:00:03.96 bitrate=3700.9kbits/s speed=0.014x elapsed=0:04:43.66    \nframe=  240 fps=0.8 q=43.9 size=    1792KiB time=00:00:03.96 bitrate=3700.9kbits/s speed=0.014x elapsed=0:04:44.20    \nframe=  241 fps=0.8 q=44.0 size=    1792KiB time=00:00:03.98 bitrate=3685.5kbits/s speed=0.014x elapsed=0:04:44.72    \nframe=  242 fps=0.8 q=38.4 size=    1792KiB time=00:00:04.00 bitrate=3670.1kbits/s speed=0.014x elapsed=0:04:45.24    \nframe=  243 fps=0.9 q=44.1 size=    1792KiB time=00:00:04.01 bitrate=3654.9kbits/s speed=0.0141x elapsed=0:04:45.76    \nframe=  243 fps=0.8 q=44.1 size=    1792KiB time=00:00:04.01 bitrate=3654.9kbits/s speed=0.014x elapsed=0:04:46.27    \nframe=  244 fps=0.9 q=44.2 size=    1792KiB time=00:00:04.03 bitrate=3639.8kbits/s speed=0.0141x elapsed=0:04:46.80    \nframe=  244 fps=0.8 q=44.2 size=    1792KiB time=00:00:04.03 bitrate=3639.8kbits/s speed=0.014x elapsed=0:04:47.33    \nframe=  244 fps=0.8 q=44.2 size=    1792KiB time=00:00:04.03 bitrate=3639.8kbits/s speed=0.014x elapsed=0:04:47.83    \nframe=  244 fps=0.8 q=44.2 size=    1792KiB time=00:00:04.03 bitrate=3639.8kbits/s speed=0.014x elapsed=0:04:48.35    \nframe=  244 fps=0.8 q=44.2 size=    1792KiB time=00:00:04.03 bitrate=3639.8kbits/s speed=0.014x elapsed=0:04:48.90    \nframe=  244 fps=0.8 q=44.2 size=    1792KiB time=00:00:04.03 bitrate=3639.8kbits/s speed=0.0139x elapsed=0:04:49.45    \nframe=  245 fps=0.8 q=44.5 size=    1792KiB time=00:00:04.05 bitrate=3624.8kbits/s speed=0.014x elapsed=0:04:49.96    \nframe=  245 fps=0.8 q=44.5 size=    1792KiB time=00:00:04.05 bitrate=3624.8kbits/s speed=0.0139x elapsed=0:04:50.48    \nframe=  246 fps=0.8 q=44.5 size=    1792KiB time=00:00:04.06 bitrate=3609.9kbits/s speed=0.014x elapsed=0:04:51.00    \nframe=  246 fps=0.8 q=44.5 size=    1792KiB time=00:00:04.06 bitrate=3609.9kbits/s speed=0.0139x elapsed=0:04:51.53    \nframe=  246 fps=0.8 q=44.5 size=    1792KiB time=00:00:04.06 bitrate=3609.9kbits/s speed=0.0139x elapsed=0:04:52.07    \nframe=  247 fps=0.8 q=35.3 size=    1792KiB time=00:00:04.08 bitrate=3595.2kbits/s speed=0.014x elapsed=0:04:52.61    \nframe=  248 fps=0.8 q=45.8 size=    2048KiB time=00:00:04.10 bitrate=4092.1kbits/s speed=0.014x elapsed=0:04:53.12    \nframe=  248 fps=0.8 q=45.8 size=    2048KiB time=00:00:04.10 bitrate=4092.1kbits/s speed=0.014x elapsed=0:04:53.64    \nframe=  248 fps=0.8 q=45.8 size=    2048KiB time=00:00:04.10 bitrate=4092.1kbits/s speed=0.0139x elapsed=0:04:54.18    \nframe=  249 fps=0.8 q=46.0 size=    2048KiB time=00:00:04.11 bitrate=4075.5kbits/s speed=0.014x elapsed=0:04:54.70    \nframe=  250 fps=0.8 q=45.9 size=    2048KiB time=00:00:04.13 bitrate=4059.1kbits/s speed=0.014x elapsed=0:04:55.22    \nframe=  251 fps=0.8 q=46.2 size=    2048KiB time=00:00:04.15 bitrate=4042.8kbits/s speed=0.014x elapsed=0:04:55.74    \nframe=  251 fps=0.8 q=46.2 size=    2048KiB time=00:00:04.15 bitrate=4042.8kbits/s speed=0.014x elapsed=0:04:56.32    \nframe=  251 fps=0.8 q=46.2 size=    2048KiB time=00:00:04.15 bitrate=4042.8kbits/s speed=0.014x elapsed=0:04:56.85    \nframe=  251 fps=0.8 q=46.2 size=    2048KiB time=00:00:04.15 bitrate=4042.8kbits/s speed=0.014x elapsed=0:04:57.38    \nframe=  251 fps=0.8 q=46.2 size=    2048KiB time=00:00:04.15 bitrate=4042.8kbits/s speed=0.0139x elapsed=0:04:57.94    \nframe=  251 fps=0.8 q=46.2 size=    2048KiB time=00:00:04.15 bitrate=4042.8kbits/s speed=0.0139x elapsed=0:04:58.57    \nframe=  251 fps=0.8 q=46.2 size=    2048KiB time=00:00:04.15 bitrate=4042.8kbits/s speed=0.0139x elapsed=0:04:59.23    \nframe=  252 fps=0.8 q=39.0 size=    2048KiB time=00:00:04.16 bitrate=4026.6kbits/s speed=0.0139x elapsed=0:04:59.87    \nframe=  252 fps=0.8 q=39.0 size=    2048KiB time=00:00:04.16 bitrate=4026.6kbits/s speed=0.0139x elapsed=0:05:00.50    \nframe=  252 fps=0.8 q=39.0 size=    2048KiB time=00:00:04.16 bitrate=4026.6kbits/s speed=0.0138x elapsed=0:05:01.06    \nframe=  252 fps=0.8 q=39.0 size=    2048KiB time=00:00:04.16 bitrate=4026.6kbits/s speed=0.0138x elapsed=0:05:01.60    \nframe=  252 fps=0.8 q=39.0 size=    2048KiB time=00:00:04.16 bitrate=4026.6kbits/s speed=0.0138x elapsed=0:05:02.12    \nframe=  253 fps=0.8 q=44.9 size=    2048KiB time=00:00:04.18 bitrate=4010.6kbits/s speed=0.0138x elapsed=0:05:02.64    \nframe=  253 fps=0.8 q=44.9 size=    2048KiB time=00:00:04.18 bitrate=4010.6kbits/s speed=0.0138x elapsed=0:05:03.15    \nframe=  253 fps=0.8 q=44.9 size=    2048KiB time=00:00:04.18 bitrate=4010.6kbits/s speed=0.0138x elapsed=0:05:03.67    \nframe=  254 fps=0.8 q=45.9 size=    2048KiB time=00:00:04.20 bitrate=3994.7kbits/s speed=0.0138x elapsed=0:05:04.19    \nframe=  254 fps=0.8 q=45.9 size=    2048KiB time=00:00:04.20 bitrate=3994.7kbits/s speed=0.0138x elapsed=0:05:04.72    \nframe=  254 fps=0.8 q=45.9 size=    2048KiB time=00:00:04.20 bitrate=3994.7kbits/s speed=0.0138x elapsed=0:05:05.24    \nframe=  255 fps=0.8 q=46.0 size=    2048KiB time=00:00:04.21 bitrate=3978.9kbits/s speed=0.0138x elapsed=0:05:05.77    \nframe=  255 fps=0.8 q=46.0 size=    2048KiB time=00:00:04.21 bitrate=3978.9kbits/s speed=0.0138x elapsed=0:05:06.34    \nframe=  255 fps=0.8 q=46.0 size=    2048KiB time=00:00:04.21 bitrate=3978.9kbits/s speed=0.0137x elapsed=0:05:06.87    \nframe=  255 fps=0.8 q=46.0 size=    2048KiB time=00:00:04.21 bitrate=3978.9kbits/s speed=0.0137x elapsed=0:05:07.43    \nframe=  256 fps=0.8 q=45.6 size=    2048KiB time=00:00:04.23 bitrate=3963.2kbits/s speed=0.0137x elapsed=0:05:07.97    \nframe=  256 fps=0.8 q=45.6 size=    2048KiB time=00:00:04.23 bitrate=3963.2kbits/s speed=0.0137x elapsed=0:05:08.47    \nframe=  256 fps=0.8 q=45.6 size=    2048KiB time=00:00:04.23 bitrate=3963.2kbits/s speed=0.0137x elapsed=0:05:09.00    \nframe=  257 fps=0.8 q=40.9 size=    2048KiB time=00:00:04.25 bitrate=3947.7kbits/s speed=0.0137x elapsed=0:05:09.51    \nframe=  257 fps=0.8 q=40.9 size=    2048KiB time=00:00:04.25 bitrate=3947.7kbits/s speed=0.0137x elapsed=0:05:10.04    \nframe=  257 fps=0.8 q=40.9 size=    2048KiB time=00:00:04.25 bitrate=3947.7kbits/s speed=0.0137x elapsed=0:05:10.58    \nframe=  258 fps=0.8 q=46.4 size=    2048KiB time=00:00:04.26 bitrate=3932.2kbits/s speed=0.0137x elapsed=0:05:11.11    \nframe=  258 fps=0.8 q=46.4 size=    2048KiB time=00:00:04.26 bitrate=3932.2kbits/s speed=0.0137x elapsed=0:05:11.66    \nframe=  258 fps=0.8 q=46.4 size=    2048KiB time=00:00:04.26 bitrate=3932.2kbits/s speed=0.0137x elapsed=0:05:12.30    \nframe=  258 fps=0.8 q=46.4 size=    2048KiB time=00:00:04.26 bitrate=3932.2kbits/s speed=0.0136x elapsed=0:05:12.92    \nframe=  258 fps=0.8 q=46.4 size=    2048KiB time=00:00:04.26 bitrate=3932.2kbits/s speed=0.0136x elapsed=0:05:13.55    \nframe=  258 fps=0.8 q=46.4 size=    2048KiB time=00:00:04.26 bitrate=3932.2kbits/s speed=0.0136x elapsed=0:05:14.12    \nframe=  258 fps=0.8 q=46.4 size=    2048KiB time=00:00:04.26 bitrate=3932.2kbits/s speed=0.0136x elapsed=0:05:14.68    \nframe=  260 fps=0.8 q=46.5 size=    2048KiB time=00:00:04.28 bitrate=3916.9kbits/s speed=0.0136x elapsed=0:05:15.26    \nframe=  260 fps=0.8 q=46.5 size=    2048KiB time=00:00:04.30 bitrate=3901.8kbits/s speed=0.0136x elapsed=0:05:15.83    \nframe=  260 fps=0.8 q=46.5 size=    2048KiB time=00:00:04.30 bitrate=3901.8kbits/s speed=0.0136x elapsed=0:05:16.38    \nframe=  260 fps=0.8 q=46.5 size=    2048KiB time=00:00:04.30 bitrate=3901.8kbits/s speed=0.0136x elapsed=0:05:16.92    \nframe=  260 fps=0.8 q=46.5 size=    2048KiB time=00:00:04.30 bitrate=3901.8kbits/s speed=0.0135x elapsed=0:05:17.43    \nframe=  260 fps=0.8 q=46.5 size=    2048KiB time=00:00:04.30 bitrate=3901.8kbits/s speed=0.0135x elapsed=0:05:17.97    \nframe=  260 fps=0.8 q=46.5 size=    2048KiB time=00:00:04.30 bitrate=3901.8kbits/s speed=0.0135x elapsed=0:05:18.47    \nframe=  261 fps=0.8 q=46.9 size=    2048KiB time=00:00:04.31 bitrate=3886.7kbits/s speed=0.0135x elapsed=0:05:19.03    \nframe=  261 fps=0.8 q=46.9 size=    2048KiB time=00:00:04.31 bitrate=3886.7kbits/s speed=0.0135x elapsed=0:05:19.56    \nframe=  261 fps=0.8 q=46.9 size=    2048KiB time=00:00:04.31 bitrate=3886.7kbits/s speed=0.0135x elapsed=0:05:20.09    \nframe=  261 fps=0.8 q=46.9 size=    2048KiB time=00:00:04.31 bitrate=3886.7kbits/s speed=0.0135x elapsed=0:05:20.62    \nframe=  261 fps=0.8 q=46.9 size=    2048KiB time=00:00:04.31 bitrate=3886.7kbits/s speed=0.0134x elapsed=0:05:21.17    \nframe=  261 fps=0.8 q=46.9 size=    2048KiB time=00:00:04.31 bitrate=3886.7kbits/s speed=0.0134x elapsed=0:05:21.73    \nframe=  262 fps=0.8 q=41.2 size=    2048KiB time=00:00:04.33 bitrate=3871.7kbits/s speed=0.0134x elapsed=0:05:22.30    \nframe=  263 fps=0.8 q=46.5 size=    2048KiB time=00:00:04.35 bitrate=3856.9kbits/s speed=0.0135x elapsed=0:05:22.86    \nframe=  263 fps=0.8 q=46.5 size=    2048KiB time=00:00:04.35 bitrate=3856.9kbits/s speed=0.0135x elapsed=0:05:23.37    \nframe=  263 fps=0.8 q=46.5 size=    2048KiB time=00:00:04.35 bitrate=3856.9kbits/s speed=0.0134x elapsed=0:05:23.89    \nframe=  263 fps=0.8 q=46.5 size=    2048KiB time=00:00:04.35 bitrate=3856.9kbits/s speed=0.0134x elapsed=0:05:24.46    \nframe=  264 fps=0.8 q=47.0 size=    2048KiB time=00:00:04.36 bitrate=3842.2kbits/s speed=0.0134x elapsed=0:05:25.02    \nframe=  264 fps=0.8 q=47.0 size=    2048KiB time=00:00:04.36 bitrate=3842.2kbits/s speed=0.0134x elapsed=0:05:25.58    \nframe=  264 fps=0.8 q=47.0 size=    2048KiB time=00:00:04.36 bitrate=3842.2kbits/s speed=0.0134x elapsed=0:05:26.12    \nframe=  264 fps=0.8 q=47.0 size=    2048KiB time=00:00:04.36 bitrate=3842.2kbits/s speed=0.0134x elapsed=0:05:26.64    \nframe=  264 fps=0.8 q=47.0 size=    2048KiB time=00:00:04.36 bitrate=3842.2kbits/s speed=0.0133x elapsed=0:05:27.19    \nframe=  264 fps=0.8 q=47.0 size=    2048KiB time=00:00:04.36 bitrate=3842.2kbits/s speed=0.0133x elapsed=0:05:27.71    \nframe=  264 fps=0.8 q=47.0 size=    2048KiB time=00:00:04.36 bitrate=3842.2kbits/s speed=0.0133x elapsed=0:05:28.26    \nframe=  265 fps=0.8 q=47.2 size=    2048KiB time=00:00:04.38 bitrate=3827.6kbits/s speed=0.0133x elapsed=0:05:28.84    \nframe=  266 fps=0.8 q=47.1 size=    2048KiB time=00:00:04.40 bitrate=3813.1kbits/s speed=0.0134x elapsed=0:05:29.40    \nframe=  266 fps=0.8 q=47.1 size=    2048KiB time=00:00:04.40 bitrate=3813.1kbits/s speed=0.0133x elapsed=0:05:29.96    \nframe=  266 fps=0.8 q=47.1 size=    2048KiB time=00:00:04.40 bitrate=3813.1kbits/s speed=0.0133x elapsed=0:05:30.48    \nframe=  266 fps=0.8 q=47.1 size=    2048KiB time=00:00:04.40 bitrate=3813.1kbits/s speed=0.0133x elapsed=0:05:31.01    \nframe=  267 fps=0.8 q=41.4 size=    2048KiB time=00:00:04.41 bitrate=3798.7kbits/s speed=0.0133x elapsed=0:05:31.53    \nframe=  267 fps=0.8 q=41.4 size=    2048KiB time=00:00:04.41 bitrate=3798.7kbits/s speed=0.0133x elapsed=0:05:32.05    \nframe=  267 fps=0.8 q=41.4 size=    2048KiB time=00:00:04.41 bitrate=3798.7kbits/s speed=0.0133x elapsed=0:05:32.59    \nframe=  268 fps=0.8 q=46.7 size=    2048KiB time=00:00:04.43 bitrate=3784.4kbits/s speed=0.0133x elapsed=0:05:33.12    \nframe=  268 fps=0.8 q=46.7 size=    2048KiB time=00:00:04.43 bitrate=3784.4kbits/s speed=0.0133x elapsed=0:05:33.64    \nframe=  268 fps=0.8 q=46.7 size=    2048KiB time=00:00:04.43 bitrate=3784.4kbits/s speed=0.0133x elapsed=0:05:34.20    \nframe=  269 fps=0.8 q=46.9 size=    2048KiB time=00:00:04.45 bitrate=3770.2kbits/s speed=0.0133x elapsed=0:05:34.73    \nframe=  269 fps=0.8 q=46.9 size=    2048KiB time=00:00:04.45 bitrate=3770.2kbits/s speed=0.0133x elapsed=0:05:35.29    \nframe=  269 fps=0.8 q=46.9 size=    2048KiB time=00:00:04.45 bitrate=3770.2kbits/s speed=0.0132x elapsed=0:05:35.85    \nframe=  269 fps=0.8 q=46.9 size=    2048KiB time=00:00:04.45 bitrate=3770.2kbits/s speed=0.0132x elapsed=0:05:36.39    \nframe=  269 fps=0.8 q=46.9 size=    2048KiB time=00:00:04.45 bitrate=3770.2kbits/s speed=0.0132x elapsed=0:05:36.96    \nframe=  269 fps=0.8 q=46.9 size=    2048KiB time=00:00:04.45 bitrate=3770.2kbits/s speed=0.0132x elapsed=0:05:37.49    \nframe=  270 fps=0.8 q=47.4 size=    2048KiB time=00:00:04.46 bitrate=3756.2kbits/s speed=0.0132x elapsed=0:05:38.04    \nframe=  270 fps=0.8 q=47.4 size=    2048KiB time=00:00:04.46 bitrate=3756.2kbits/s speed=0.0132x elapsed=0:05:38.58    \nframe=  270 fps=0.8 q=47.4 size=    2048KiB time=00:00:04.46 bitrate=3756.2kbits/s speed=0.0132x elapsed=0:05:39.13    \nframe=  270 fps=0.8 q=47.4 size=    2048KiB time=00:00:04.46 bitrate=3756.2kbits/s speed=0.0131x elapsed=0:05:39.73    \nframe=  271 fps=0.8 q=47.3 size=    2048KiB time=00:00:04.48 bitrate=3742.2kbits/s speed=0.0132x elapsed=0:05:40.27    \nframe=  271 fps=0.8 q=47.3 size=    2048KiB time=00:00:04.48 bitrate=3742.2kbits/s speed=0.0132x elapsed=0:05:40.78    \nframe=  271 fps=0.8 q=47.3 size=    2048KiB time=00:00:04.48 bitrate=3742.2kbits/s speed=0.0131x elapsed=0:05:41.29    \nframe=  272 fps=0.8 q=41.6 size=    2048KiB time=00:00:04.50 bitrate=3728.3kbits/s speed=0.0132x elapsed=0:05:41.82    \nframe=  273 fps=0.8 q=46.9 size=    2048KiB time=00:00:04.51 bitrate=3714.6kbits/s speed=0.0132x elapsed=0:05:42.36    \nframe=  273 fps=0.8 q=46.9 size=    2048KiB time=00:00:04.51 bitrate=3714.6kbits/s speed=0.0132x elapsed=0:05:42.88    \nframe=  273 fps=0.8 q=46.9 size=    2048KiB time=00:00:04.51 bitrate=3714.6kbits/s speed=0.0132x elapsed=0:05:43.40    \nframe=  273 fps=0.8 q=46.9 size=    2048KiB time=00:00:04.51 bitrate=3714.6kbits/s speed=0.0131x elapsed=0:05:43.94    \nframe=  273 fps=0.8 q=46.9 size=    2048KiB time=00:00:04.51 bitrate=3714.6kbits/s speed=0.0131x elapsed=0:05:44.44    \nframe=  275 fps=0.8 q=47.5 size=    2304KiB time=00:00:04.55 bitrate=4148.3kbits/s speed=0.0132x elapsed=0:05:44.97    \nframe=  275 fps=0.8 q=47.5 size=    2304KiB time=00:00:04.55 bitrate=4148.3kbits/s speed=0.0132x elapsed=0:05:45.51    \nframe=  276 fps=0.8 q=47.4 size=    2304KiB time=00:00:04.56 bitrate=4133.2kbits/s speed=0.0132x elapsed=0:05:46.04    \nframe=  276 fps=0.8 q=47.4 size=    2304KiB time=00:00:04.56 bitrate=4133.2kbits/s speed=0.0132x elapsed=0:05:46.56    \nframe=  276 fps=0.8 q=47.4 size=    2304KiB time=00:00:04.56 bitrate=4133.2kbits/s speed=0.0132x elapsed=0:05:47.08    \nframe=  276 fps=0.8 q=47.4 size=    2304KiB time=00:00:04.56 bitrate=4133.2kbits/s speed=0.0131x elapsed=0:05:47.58    \nframe=  277 fps=0.8 q=41.8 size=    2304KiB time=00:00:04.58 bitrate=4118.1kbits/s speed=0.0132x elapsed=0:05:48.10    \nframe=  277 fps=0.8 q=41.8 size=    2304KiB time=00:00:04.58 bitrate=4118.1kbits/s speed=0.0131x elapsed=0:05:48.62    \nframe=  278 fps=0.8 q=45.9 size=    2304KiB time=00:00:04.60 bitrate=4103.2kbits/s speed=0.0132x elapsed=0:05:49.14    \nframe=  278 fps=0.8 q=45.9 size=    2304KiB time=00:00:04.60 bitrate=4103.2kbits/s speed=0.0132x elapsed=0:05:49.66    \nframe=  278 fps=0.8 q=45.9 size=    2304KiB time=00:00:04.60 bitrate=4103.2kbits/s speed=0.0131x elapsed=0:05:50.19    \nframe=  278 fps=0.8 q=45.9 size=    2304KiB time=00:00:04.60 bitrate=4103.2kbits/s speed=0.0131x elapsed=0:05:50.71    \nframe=  280 fps=0.8 q=47.6 size=    2304KiB time=00:00:04.61 bitrate=4088.4kbits/s speed=0.0131x elapsed=0:05:51.26    \nframe=  280 fps=0.8 q=47.6 size=    2304KiB time=00:00:04.63 bitrate=4073.7kbits/s speed=0.0132x elapsed=0:05:51.83    \nframe=  281 fps=0.8 q=41.7 size=    2304KiB time=00:00:04.65 bitrate=4059.1kbits/s speed=0.0132x elapsed=0:05:52.36    \nframe=  282 fps=0.8 q=47.0 size=    2304KiB time=00:00:04.66 bitrate=4044.6kbits/s speed=0.0132x elapsed=0:05:52.92    \nframe=  282 fps=0.8 q=47.0 size=    2304KiB time=00:00:04.66 bitrate=4044.6kbits/s speed=0.0132x elapsed=0:05:53.43    \nframe=  282 fps=0.8 q=47.0 size=    2304KiB time=00:00:04.66 bitrate=4044.6kbits/s speed=0.0132x elapsed=0:05:53.97    \nframe=  282 fps=0.8 q=47.0 size=    2304KiB time=00:00:04.66 bitrate=4044.6kbits/s speed=0.0132x elapsed=0:05:54.47    \nframe=  282 fps=0.8 q=47.0 size=    2304KiB time=00:00:04.66 bitrate=4044.6kbits/s speed=0.0131x elapsed=0:05:55.00    \nframe=  283 fps=0.8 q=47.8 size=    2304KiB time=00:00:04.68 bitrate=4030.2kbits/s speed=0.0132x elapsed=0:05:55.53    \nframe=  284 fps=0.8 q=48.4 size=    2304KiB time=00:00:04.70 bitrate=4015.9kbits/s speed=0.0132x elapsed=0:05:56.06    \nframe=  285 fps=0.8 q=48.1 size=    2304KiB time=00:00:04.71 bitrate=4001.7kbits/s speed=0.0132x elapsed=0:05:56.59    \nframe=  285 fps=0.8 q=48.1 size=    2304KiB time=00:00:04.71 bitrate=4001.7kbits/s speed=0.0132x elapsed=0:05:57.15    \nframe=  285 fps=0.8 q=48.1 size=    2304KiB time=00:00:04.71 bitrate=4001.7kbits/s speed=0.0132x elapsed=0:05:57.68    \nframe=  286 fps=0.8 q=41.7 size=    2304KiB time=00:00:04.73 bitrate=3987.6kbits/s speed=0.0132x elapsed=0:05:58.23    \nframe=  286 fps=0.8 q=41.7 size=    2304KiB time=00:00:04.73 bitrate=3987.6kbits/s speed=0.0132x elapsed=0:05:58.75    \nframe=  286 fps=0.8 q=41.7 size=    2304KiB time=00:00:04.73 bitrate=3987.6kbits/s speed=0.0132x elapsed=0:05:59.27    \nframe=  287 fps=0.8 q=45.9 size=    2304KiB time=00:00:04.75 bitrate=3973.6kbits/s speed=0.0132x elapsed=0:05:59.80    \nframe=  287 fps=0.8 q=45.9 size=    2304KiB time=00:00:04.75 bitrate=3973.6kbits/s speed=0.0132x elapsed=0:06:00.33    \nframe=  287 fps=0.8 q=45.9 size=    2304KiB time=00:00:04.75 bitrate=3973.6kbits/s speed=0.0132x elapsed=0:06:00.86    \nframe=  288 fps=0.8 q=47.8 size=    2304KiB time=00:00:04.76 bitrate=3959.7kbits/s speed=0.0132x elapsed=0:06:01.37    \nframe=  289 fps=0.8 q=47.8 size=    2304KiB time=00:00:04.78 bitrate=3945.9kbits/s speed=0.0132x elapsed=0:06:01.88    \nframe=  289 fps=0.8 q=47.8 size=    2304KiB time=00:00:04.78 bitrate=3945.9kbits/s speed=0.0132x elapsed=0:06:02.41    \nframe=  289 fps=0.8 q=47.8 size=    2304KiB time=00:00:04.78 bitrate=3945.9kbits/s speed=0.0132x elapsed=0:06:02.97    \nframe=  289 fps=0.8 q=47.8 size=    2304KiB time=00:00:04.78 bitrate=3945.9kbits/s speed=0.0132x elapsed=0:06:03.51    \nframe=  290 fps=0.8 q=47.7 size=    2304KiB time=00:00:04.80 bitrate=3932.2kbits/s speed=0.0132x elapsed=0:06:04.03    \nframe=  290 fps=0.8 q=47.7 size=    2304KiB time=00:00:04.80 bitrate=3932.2kbits/s speed=0.0132x elapsed=0:06:04.56    \nframe=  291 fps=0.8 q=41.9 size=    2304KiB time=00:00:04.81 bitrate=3918.6kbits/s speed=0.0132x elapsed=0:06:05.07    \nframe=  291 fps=0.8 q=41.9 size=    2304KiB time=00:00:04.81 bitrate=3918.6kbits/s speed=0.0132x elapsed=0:06:05.59    \nframe=  292 fps=0.8 q=47.1 size=    2304KiB time=00:00:04.83 bitrate=3905.1kbits/s speed=0.0132x elapsed=0:06:06.11    \nframe=  292 fps=0.8 q=47.1 size=    2304KiB time=00:00:04.83 bitrate=3905.1kbits/s speed=0.0132x elapsed=0:06:06.67    \nframe=  292 fps=0.8 q=47.1 size=    2304KiB time=00:00:04.83 bitrate=3905.1kbits/s speed=0.0132x elapsed=0:06:07.23    \nframe=  292 fps=0.8 q=47.1 size=    2304KiB time=00:00:04.83 bitrate=3905.1kbits/s speed=0.0131x elapsed=0:06:07.82    \nframe=  293 fps=0.8 q=47.7 size=    2304KiB time=00:00:04.85 bitrate=3891.7kbits/s speed=0.0132x elapsed=0:06:08.45    \nframe=  293 fps=0.8 q=47.7 size=    2304KiB time=00:00:04.85 bitrate=3891.7kbits/s speed=0.0131x elapsed=0:06:09.05    \nframe=  293 fps=0.8 q=47.7 size=    2304KiB time=00:00:04.85 bitrate=3891.7kbits/s speed=0.0131x elapsed=0:06:09.69    \nframe=  293 fps=0.8 q=47.7 size=    2304KiB time=00:00:04.85 bitrate=3891.7kbits/s speed=0.0131x elapsed=0:06:10.30    \nframe=  294 fps=0.8 q=48.3 size=    2304KiB time=00:00:04.86 bitrate=3878.4kbits/s speed=0.0131x elapsed=0:06:10.85    \nframe=  294 fps=0.8 q=48.3 size=    2304KiB time=00:00:04.86 bitrate=3878.4kbits/s speed=0.0131x elapsed=0:06:11.39    \nframe=  294 fps=0.8 q=48.3 size=    2304KiB time=00:00:04.86 bitrate=3878.4kbits/s speed=0.0131x elapsed=0:06:11.97    \nframe=  294 fps=0.8 q=48.3 size=    2304KiB time=00:00:04.86 bitrate=3878.4kbits/s speed=0.0131x elapsed=0:06:12.52    \nframe=  294 fps=0.8 q=48.3 size=    2304KiB time=00:00:04.86 bitrate=3878.4kbits/s speed=0.013x elapsed=0:06:13.04    \nframe=  295 fps=0.8 q=47.9 size=    2304KiB time=00:00:04.88 bitrate=3865.1kbits/s speed=0.0131x elapsed=0:06:13.56    \nframe=  295 fps=0.8 q=47.9 size=    2304KiB time=00:00:04.88 bitrate=3865.1kbits/s speed=0.0131x elapsed=0:06:14.10    \nframe=  296 fps=0.8 q=43.1 size=    2304KiB time=00:00:04.90 bitrate=3852.0kbits/s speed=0.0131x elapsed=0:06:14.66    \nframe=  296 fps=0.8 q=43.1 size=    2304KiB time=00:00:04.90 bitrate=3852.0kbits/s speed=0.0131x elapsed=0:06:15.23    \nframe=  296 fps=0.8 q=43.1 size=    2304KiB time=00:00:04.90 bitrate=3852.0kbits/s speed=0.013x elapsed=0:06:15.75    \nframe=  296 fps=0.8 q=43.1 size=    2304KiB time=00:00:04.90 bitrate=3852.0kbits/s speed=0.013x elapsed=0:06:16.27    \nframe=  296 fps=0.8 q=43.1 size=    2304KiB time=00:00:04.90 bitrate=3852.0kbits/s speed=0.013x elapsed=0:06:16.78    \nframe=  297 fps=0.8 q=47.1 size=    2304KiB time=00:00:04.91 bitrate=3838.9kbits/s speed=0.013x elapsed=0:06:17.29    \nframe=  299 fps=0.8 q=47.5 size=    2304KiB time=00:00:04.95 bitrate=3813.1kbits/s speed=0.0131x elapsed=0:06:17.82    \n[mp4 @ 000001f0f9fc7ac0] Starting second pass: moving the moov atom to the beginning of the file\n[out#0/mp4 @ 000001f0f9f3ab40] video:2549KiB audio:0KiB subtitle:0KiB other streams:0KiB global headers:2KiB muxing overhead: 0.261855%\nframe=  300 fps=0.8 q=46.7 Lsize=    2555KiB time=00:00:04.96 bitrate=4214.8kbits/s speed=0.0131x elapsed=0:06:18.13    \nx265 [info]: frame I:      2, Avg QP:36.65  kb/s: 54130.56\nx265 [info]: frame P:     59, Avg QP:36.29  kb/s: 8394.77 \nx265 [info]: frame B:    239, Avg QP:42.57  kb/s: 2713.80 \nx265 [info]: Weighted P-Frames: Y:0.0% UV:0.0%\n\nencoded 300 frames in 377.25s (0.80 fps), 4173.83 kb/s, Avg QP:41.29\n",
  "seconds": 378.76777243614197,
  "probe_out": {}
}